<?xml version="1.0" encoding="utf-8" standalone="no"?>
<!DOCTYPE svg PUBLIC "-//W3C//DTD SVG 1.1//EN"
  "http://www.w3.org/Graphics/SVG/1.1/DTD/svg11.dtd">
<!-- Created with matplotlib (https://matplotlib.org/) -->
<svg height="144pt" version="1.1" viewBox="0 0 288 144" width="288pt" xmlns="http://www.w3.org/2000/svg" xmlns:xlink="http://www.w3.org/1999/xlink">
 <defs>
  <style type="text/css">
*{stroke-linecap:butt;stroke-linejoin:round;}
  </style>
 </defs>
 <g id="figure_1">
  <g id="patch_1">
   <path d="M 0 144 
L 288 144 
L 288 0 
L 0 0 
z
" style="fill:#ffffff;"/>
  </g>
  <g id="axes_1">
   <g id="patch_2">
    <path d="M 44.75 99.484406 
L 135.846 99.484406 
L 135.846 19.68 
L 44.75 19.68 
z
" style="fill:#ffffff;"/>
   </g>
   <g id="matplotlib.axis_1">
    <g id="xtick_1">
     <g id="line2d_1">
      <defs>
       <path d="M 0 0 
L 0 3.5 
" id="m21d45f8f8a" style="stroke:#000000;stroke-width:0.8;"/>
      </defs>
      <g>
       <use style="stroke:#000000;stroke-width:0.8;" x="81.1884" xlink:href="#m21d45f8f8a" y="99.484406"/>
      </g>
     </g>
     <g id="text_1">
      <!-- Active -->
      <defs>
       <path d="M 34.1875 63.1875 
L 20.796875 26.90625 
L 47.609375 26.90625 
z
M 28.609375 72.90625 
L 39.796875 72.90625 
L 67.578125 0 
L 57.328125 0 
L 50.6875 18.703125 
L 17.828125 18.703125 
L 11.1875 0 
L 0.78125 0 
z
" id="DejaVuSans-65"/>
       <path d="M 48.78125 52.59375 
L 48.78125 44.1875 
Q 44.96875 46.296875 41.140625 47.34375 
Q 37.3125 48.390625 33.40625 48.390625 
Q 24.65625 48.390625 19.8125 42.84375 
Q 14.984375 37.3125 14.984375 27.296875 
Q 14.984375 17.28125 19.8125 11.734375 
Q 24.65625 6.203125 33.40625 6.203125 
Q 37.3125 6.203125 41.140625 7.25 
Q 44.96875 8.296875 48.78125 10.40625 
L 48.78125 2.09375 
Q 45.015625 0.34375 40.984375 -0.53125 
Q 36.96875 -1.421875 32.421875 -1.421875 
Q 20.0625 -1.421875 12.78125 6.34375 
Q 5.515625 14.109375 5.515625 27.296875 
Q 5.515625 40.671875 12.859375 48.328125 
Q 20.21875 56 33.015625 56 
Q 37.15625 56 41.109375 55.140625 
Q 45.0625 54.296875 48.78125 52.59375 
z
" id="DejaVuSans-99"/>
       <path d="M 18.3125 70.21875 
L 18.3125 54.6875 
L 36.8125 54.6875 
L 36.8125 47.703125 
L 18.3125 47.703125 
L 18.3125 18.015625 
Q 18.3125 11.328125 20.140625 9.421875 
Q 21.96875 7.515625 27.59375 7.515625 
L 36.8125 7.515625 
L 36.8125 0 
L 27.59375 0 
Q 17.1875 0 13.234375 3.875 
Q 9.28125 7.765625 9.28125 18.015625 
L 9.28125 47.703125 
L 2.6875 47.703125 
L 2.6875 54.6875 
L 9.28125 54.6875 
L 9.28125 70.21875 
z
" id="DejaVuSans-116"/>
       <path d="M 9.421875 54.6875 
L 18.40625 54.6875 
L 18.40625 0 
L 9.421875 0 
z
M 9.421875 75.984375 
L 18.40625 75.984375 
L 18.40625 64.59375 
L 9.421875 64.59375 
z
" id="DejaVuSans-105"/>
       <path d="M 2.984375 54.6875 
L 12.5 54.6875 
L 29.59375 8.796875 
L 46.6875 54.6875 
L 56.203125 54.6875 
L 35.6875 0 
L 23.484375 0 
z
" id="DejaVuSans-118"/>
       <path d="M 56.203125 29.59375 
L 56.203125 25.203125 
L 14.890625 25.203125 
Q 15.484375 15.921875 20.484375 11.0625 
Q 25.484375 6.203125 34.421875 6.203125 
Q 39.59375 6.203125 44.453125 7.46875 
Q 49.3125 8.734375 54.109375 11.28125 
L 54.109375 2.78125 
Q 49.265625 0.734375 44.1875 -0.34375 
Q 39.109375 -1.421875 33.890625 -1.421875 
Q 20.796875 -1.421875 13.15625 6.1875 
Q 5.515625 13.8125 5.515625 26.8125 
Q 5.515625 40.234375 12.765625 48.109375 
Q 20.015625 56 32.328125 56 
Q 43.359375 56 49.78125 48.890625 
Q 56.203125 41.796875 56.203125 29.59375 
z
M 47.21875 32.234375 
Q 47.125 39.59375 43.09375 43.984375 
Q 39.0625 48.390625 32.421875 48.390625 
Q 24.90625 48.390625 20.390625 44.140625 
Q 15.875 39.890625 15.1875 32.171875 
z
" id="DejaVuSans-101"/>
      </defs>
      <g transform="translate(75.76014 122.906077)rotate(-45)scale(0.06 -0.06)">
       <use xlink:href="#DejaVuSans-65"/>
       <use x="68.392578" xlink:href="#DejaVuSans-99"/>
       <use x="123.373047" xlink:href="#DejaVuSans-116"/>
       <use x="162.582031" xlink:href="#DejaVuSans-105"/>
       <use x="190.365234" xlink:href="#DejaVuSans-118"/>
       <use x="249.544922" xlink:href="#DejaVuSans-101"/>
      </g>
     </g>
    </g>
    <g id="xtick_2">
     <g id="line2d_2">
      <g>
       <use style="stroke:#000000;stroke-width:0.8;" x="99.4076" xlink:href="#m21d45f8f8a" y="99.484406"/>
      </g>
     </g>
     <g id="text_2">
      <!-- Passive -->
      <defs>
       <path d="M 19.671875 64.796875 
L 19.671875 37.40625 
L 32.078125 37.40625 
Q 38.96875 37.40625 42.71875 40.96875 
Q 46.484375 44.53125 46.484375 51.125 
Q 46.484375 57.671875 42.71875 61.234375 
Q 38.96875 64.796875 32.078125 64.796875 
z
M 9.8125 72.90625 
L 32.078125 72.90625 
Q 44.34375 72.90625 50.609375 67.359375 
Q 56.890625 61.8125 56.890625 51.125 
Q 56.890625 40.328125 50.609375 34.8125 
Q 44.34375 29.296875 32.078125 29.296875 
L 19.671875 29.296875 
L 19.671875 0 
L 9.8125 0 
z
" id="DejaVuSans-80"/>
       <path d="M 34.28125 27.484375 
Q 23.390625 27.484375 19.1875 25 
Q 14.984375 22.515625 14.984375 16.5 
Q 14.984375 11.71875 18.140625 8.90625 
Q 21.296875 6.109375 26.703125 6.109375 
Q 34.1875 6.109375 38.703125 11.40625 
Q 43.21875 16.703125 43.21875 25.484375 
L 43.21875 27.484375 
z
M 52.203125 31.203125 
L 52.203125 0 
L 43.21875 0 
L 43.21875 8.296875 
Q 40.140625 3.328125 35.546875 0.953125 
Q 30.953125 -1.421875 24.3125 -1.421875 
Q 15.921875 -1.421875 10.953125 3.296875 
Q 6 8.015625 6 15.921875 
Q 6 25.140625 12.171875 29.828125 
Q 18.359375 34.515625 30.609375 34.515625 
L 43.21875 34.515625 
L 43.21875 35.40625 
Q 43.21875 41.609375 39.140625 45 
Q 35.0625 48.390625 27.6875 48.390625 
Q 23 48.390625 18.546875 47.265625 
Q 14.109375 46.140625 10.015625 43.890625 
L 10.015625 52.203125 
Q 14.9375 54.109375 19.578125 55.046875 
Q 24.21875 56 28.609375 56 
Q 40.484375 56 46.34375 49.84375 
Q 52.203125 43.703125 52.203125 31.203125 
z
" id="DejaVuSans-97"/>
       <path d="M 44.28125 53.078125 
L 44.28125 44.578125 
Q 40.484375 46.53125 36.375 47.5 
Q 32.28125 48.484375 27.875 48.484375 
Q 21.1875 48.484375 17.84375 46.4375 
Q 14.5 44.390625 14.5 40.28125 
Q 14.5 37.15625 16.890625 35.375 
Q 19.28125 33.59375 26.515625 31.984375 
L 29.59375 31.296875 
Q 39.15625 29.25 43.1875 25.515625 
Q 47.21875 21.78125 47.21875 15.09375 
Q 47.21875 7.46875 41.1875 3.015625 
Q 35.15625 -1.421875 24.609375 -1.421875 
Q 20.21875 -1.421875 15.453125 -0.5625 
Q 10.6875 0.296875 5.421875 2 
L 5.421875 11.28125 
Q 10.40625 8.6875 15.234375 7.390625 
Q 20.0625 6.109375 24.8125 6.109375 
Q 31.15625 6.109375 34.5625 8.28125 
Q 37.984375 10.453125 37.984375 14.40625 
Q 37.984375 18.0625 35.515625 20.015625 
Q 33.0625 21.96875 24.703125 23.78125 
L 21.578125 24.515625 
Q 13.234375 26.265625 9.515625 29.90625 
Q 5.8125 33.546875 5.8125 39.890625 
Q 5.8125 47.609375 11.28125 51.796875 
Q 16.75 56 26.8125 56 
Q 31.78125 56 36.171875 55.265625 
Q 40.578125 54.546875 44.28125 53.078125 
z
" id="DejaVuSans-115"/>
      </defs>
      <g transform="translate(92.640257 125.584244)rotate(-45)scale(0.06 -0.06)">
       <use xlink:href="#DejaVuSans-80"/>
       <use x="60.240234" xlink:href="#DejaVuSans-97"/>
       <use x="121.519531" xlink:href="#DejaVuSans-115"/>
       <use x="173.619141" xlink:href="#DejaVuSans-115"/>
       <use x="225.71875" xlink:href="#DejaVuSans-105"/>
       <use x="253.501953" xlink:href="#DejaVuSans-118"/>
       <use x="312.681641" xlink:href="#DejaVuSans-101"/>
      </g>
     </g>
    </g>
    <g id="text_3">
     <!-- Behavior State -->
     <defs>
      <path d="M 19.671875 34.8125 
L 19.671875 8.109375 
L 35.5 8.109375 
Q 43.453125 8.109375 47.28125 11.40625 
Q 51.125 14.703125 51.125 21.484375 
Q 51.125 28.328125 47.28125 31.5625 
Q 43.453125 34.8125 35.5 34.8125 
z
M 19.671875 64.796875 
L 19.671875 42.828125 
L 34.28125 42.828125 
Q 41.5 42.828125 45.03125 45.53125 
Q 48.578125 48.25 48.578125 53.8125 
Q 48.578125 59.328125 45.03125 62.0625 
Q 41.5 64.796875 34.28125 64.796875 
z
M 9.8125 72.90625 
L 35.015625 72.90625 
Q 46.296875 72.90625 52.390625 68.21875 
Q 58.5 63.53125 58.5 54.890625 
Q 58.5 48.1875 55.375 44.234375 
Q 52.25 40.28125 46.1875 39.3125 
Q 53.46875 37.75 57.5 32.78125 
Q 61.53125 27.828125 61.53125 20.40625 
Q 61.53125 10.640625 54.890625 5.3125 
Q 48.25 0 35.984375 0 
L 9.8125 0 
z
" id="DejaVuSans-66"/>
      <path d="M 54.890625 33.015625 
L 54.890625 0 
L 45.90625 0 
L 45.90625 32.71875 
Q 45.90625 40.484375 42.875 44.328125 
Q 39.84375 48.1875 33.796875 48.1875 
Q 26.515625 48.1875 22.3125 43.546875 
Q 18.109375 38.921875 18.109375 30.90625 
L 18.109375 0 
L 9.078125 0 
L 9.078125 75.984375 
L 18.109375 75.984375 
L 18.109375 46.1875 
Q 21.34375 51.125 25.703125 53.5625 
Q 30.078125 56 35.796875 56 
Q 45.21875 56 50.046875 50.171875 
Q 54.890625 44.34375 54.890625 33.015625 
z
" id="DejaVuSans-104"/>
      <path d="M 30.609375 48.390625 
Q 23.390625 48.390625 19.1875 42.75 
Q 14.984375 37.109375 14.984375 27.296875 
Q 14.984375 17.484375 19.15625 11.84375 
Q 23.34375 6.203125 30.609375 6.203125 
Q 37.796875 6.203125 41.984375 11.859375 
Q 46.1875 17.53125 46.1875 27.296875 
Q 46.1875 37.015625 41.984375 42.703125 
Q 37.796875 48.390625 30.609375 48.390625 
z
M 30.609375 56 
Q 42.328125 56 49.015625 48.375 
Q 55.71875 40.765625 55.71875 27.296875 
Q 55.71875 13.875 49.015625 6.21875 
Q 42.328125 -1.421875 30.609375 -1.421875 
Q 18.84375 -1.421875 12.171875 6.21875 
Q 5.515625 13.875 5.515625 27.296875 
Q 5.515625 40.765625 12.171875 48.375 
Q 18.84375 56 30.609375 56 
z
" id="DejaVuSans-111"/>
      <path d="M 41.109375 46.296875 
Q 39.59375 47.171875 37.8125 47.578125 
Q 36.03125 48 33.890625 48 
Q 26.265625 48 22.1875 43.046875 
Q 18.109375 38.09375 18.109375 28.8125 
L 18.109375 0 
L 9.078125 0 
L 9.078125 54.6875 
L 18.109375 54.6875 
L 18.109375 46.1875 
Q 20.953125 51.171875 25.484375 53.578125 
Q 30.03125 56 36.53125 56 
Q 37.453125 56 38.578125 55.875 
Q 39.703125 55.765625 41.0625 55.515625 
z
" id="DejaVuSans-114"/>
      <path id="DejaVuSans-32"/>
      <path d="M 53.515625 70.515625 
L 53.515625 60.890625 
Q 47.90625 63.578125 42.921875 64.890625 
Q 37.9375 66.21875 33.296875 66.21875 
Q 25.25 66.21875 20.875 63.09375 
Q 16.5 59.96875 16.5 54.203125 
Q 16.5 49.359375 19.40625 46.890625 
Q 22.3125 44.4375 30.421875 42.921875 
L 36.375 41.703125 
Q 47.40625 39.59375 52.65625 34.296875 
Q 57.90625 29 57.90625 20.125 
Q 57.90625 9.515625 50.796875 4.046875 
Q 43.703125 -1.421875 29.984375 -1.421875 
Q 24.8125 -1.421875 18.96875 -0.25 
Q 13.140625 0.921875 6.890625 3.21875 
L 6.890625 13.375 
Q 12.890625 10.015625 18.65625 8.296875 
Q 24.421875 6.59375 29.984375 6.59375 
Q 38.421875 6.59375 43.015625 9.90625 
Q 47.609375 13.234375 47.609375 19.390625 
Q 47.609375 24.75 44.3125 27.78125 
Q 41.015625 30.8125 33.5 32.328125 
L 27.484375 33.5 
Q 16.453125 35.6875 11.515625 40.375 
Q 6.59375 45.0625 6.59375 53.421875 
Q 6.59375 63.09375 13.40625 68.65625 
Q 20.21875 74.21875 32.171875 74.21875 
Q 37.3125 74.21875 42.625 73.28125 
Q 47.953125 72.359375 53.515625 70.515625 
z
" id="DejaVuSans-83"/>
     </defs>
     <g transform="translate(68.081594 135.025643)scale(0.06 -0.06)">
      <use xlink:href="#DejaVuSans-66"/>
      <use x="68.603516" xlink:href="#DejaVuSans-101"/>
      <use x="130.126953" xlink:href="#DejaVuSans-104"/>
      <use x="193.505859" xlink:href="#DejaVuSans-97"/>
      <use x="254.785156" xlink:href="#DejaVuSans-118"/>
      <use x="313.964844" xlink:href="#DejaVuSans-105"/>
      <use x="341.748047" xlink:href="#DejaVuSans-111"/>
      <use x="402.929688" xlink:href="#DejaVuSans-114"/>
      <use x="444.042969" xlink:href="#DejaVuSans-32"/>
      <use x="475.830078" xlink:href="#DejaVuSans-83"/>
      <use x="539.306641" xlink:href="#DejaVuSans-116"/>
      <use x="578.515625" xlink:href="#DejaVuSans-97"/>
      <use x="639.794922" xlink:href="#DejaVuSans-116"/>
      <use x="679.003906" xlink:href="#DejaVuSans-101"/>
     </g>
    </g>
   </g>
   <g id="matplotlib.axis_2">
    <g id="ytick_1">
     <g id="line2d_3">
      <defs>
       <path d="M 0 0 
L -3.5 0 
" id="maa33458be8" style="stroke:#000000;stroke-width:0.8;"/>
      </defs>
      <g>
       <use style="stroke:#000000;stroke-width:0.8;" x="44.75" xlink:href="#maa33458be8" y="88.083776"/>
      </g>
     </g>
     <g id="text_4">
      <!-- 0.000 -->
      <defs>
       <path d="M 31.78125 66.40625 
Q 24.171875 66.40625 20.328125 58.90625 
Q 16.5 51.421875 16.5 36.375 
Q 16.5 21.390625 20.328125 13.890625 
Q 24.171875 6.390625 31.78125 6.390625 
Q 39.453125 6.390625 43.28125 13.890625 
Q 47.125 21.390625 47.125 36.375 
Q 47.125 51.421875 43.28125 58.90625 
Q 39.453125 66.40625 31.78125 66.40625 
z
M 31.78125 74.21875 
Q 44.046875 74.21875 50.515625 64.515625 
Q 56.984375 54.828125 56.984375 36.375 
Q 56.984375 17.96875 50.515625 8.265625 
Q 44.046875 -1.421875 31.78125 -1.421875 
Q 19.53125 -1.421875 13.0625 8.265625 
Q 6.59375 17.96875 6.59375 36.375 
Q 6.59375 54.828125 13.0625 64.515625 
Q 19.53125 74.21875 31.78125 74.21875 
z
" id="DejaVuSans-48"/>
       <path d="M 10.6875 12.40625 
L 21 12.40625 
L 21 0 
L 10.6875 0 
z
" id="DejaVuSans-46"/>
      </defs>
      <g transform="translate(20.573125 90.363308)scale(0.06 -0.06)">
       <use xlink:href="#DejaVuSans-48"/>
       <use x="63.623047" xlink:href="#DejaVuSans-46"/>
       <use x="95.410156" xlink:href="#DejaVuSans-48"/>
       <use x="159.033203" xlink:href="#DejaVuSans-48"/>
       <use x="222.65625" xlink:href="#DejaVuSans-48"/>
      </g>
     </g>
    </g>
    <g id="ytick_2">
     <g id="line2d_4">
      <g>
       <use style="stroke:#000000;stroke-width:0.8;" x="44.75" xlink:href="#maa33458be8" y="73.83299"/>
      </g>
     </g>
     <g id="text_5">
      <!-- 0.025 -->
      <defs>
       <path d="M 19.1875 8.296875 
L 53.609375 8.296875 
L 53.609375 0 
L 7.328125 0 
L 7.328125 8.296875 
Q 12.9375 14.109375 22.625 23.890625 
Q 32.328125 33.6875 34.8125 36.53125 
Q 39.546875 41.84375 41.421875 45.53125 
Q 43.3125 49.21875 43.3125 52.78125 
Q 43.3125 58.59375 39.234375 62.25 
Q 35.15625 65.921875 28.609375 65.921875 
Q 23.96875 65.921875 18.8125 64.3125 
Q 13.671875 62.703125 7.8125 59.421875 
L 7.8125 69.390625 
Q 13.765625 71.78125 18.9375 73 
Q 24.125 74.21875 28.421875 74.21875 
Q 39.75 74.21875 46.484375 68.546875 
Q 53.21875 62.890625 53.21875 53.421875 
Q 53.21875 48.921875 51.53125 44.890625 
Q 49.859375 40.875 45.40625 35.40625 
Q 44.1875 33.984375 37.640625 27.21875 
Q 31.109375 20.453125 19.1875 8.296875 
z
" id="DejaVuSans-50"/>
       <path d="M 10.796875 72.90625 
L 49.515625 72.90625 
L 49.515625 64.59375 
L 19.828125 64.59375 
L 19.828125 46.734375 
Q 21.96875 47.46875 24.109375 47.828125 
Q 26.265625 48.1875 28.421875 48.1875 
Q 40.625 48.1875 47.75 41.5 
Q 54.890625 34.8125 54.890625 23.390625 
Q 54.890625 11.625 47.5625 5.09375 
Q 40.234375 -1.421875 26.90625 -1.421875 
Q 22.3125 -1.421875 17.546875 -0.640625 
Q 12.796875 0.140625 7.71875 1.703125 
L 7.71875 11.625 
Q 12.109375 9.234375 16.796875 8.0625 
Q 21.484375 6.890625 26.703125 6.890625 
Q 35.15625 6.890625 40.078125 11.328125 
Q 45.015625 15.765625 45.015625 23.390625 
Q 45.015625 31 40.078125 35.4375 
Q 35.15625 39.890625 26.703125 39.890625 
Q 22.75 39.890625 18.8125 39.015625 
Q 14.890625 38.140625 10.796875 36.28125 
z
" id="DejaVuSans-53"/>
      </defs>
      <g transform="translate(20.573125 76.112521)scale(0.06 -0.06)">
       <use xlink:href="#DejaVuSans-48"/>
       <use x="63.623047" xlink:href="#DejaVuSans-46"/>
       <use x="95.410156" xlink:href="#DejaVuSans-48"/>
       <use x="159.033203" xlink:href="#DejaVuSans-50"/>
       <use x="222.65625" xlink:href="#DejaVuSans-53"/>
      </g>
     </g>
    </g>
    <g id="ytick_3">
     <g id="line2d_5">
      <g>
       <use style="stroke:#000000;stroke-width:0.8;" x="44.75" xlink:href="#maa33458be8" y="59.582203"/>
      </g>
     </g>
     <g id="text_6">
      <!-- 0.050 -->
      <g transform="translate(20.573125 61.861734)scale(0.06 -0.06)">
       <use xlink:href="#DejaVuSans-48"/>
       <use x="63.623047" xlink:href="#DejaVuSans-46"/>
       <use x="95.410156" xlink:href="#DejaVuSans-48"/>
       <use x="159.033203" xlink:href="#DejaVuSans-53"/>
       <use x="222.65625" xlink:href="#DejaVuSans-48"/>
      </g>
     </g>
    </g>
    <g id="ytick_4">
     <g id="line2d_6">
      <g>
       <use style="stroke:#000000;stroke-width:0.8;" x="44.75" xlink:href="#maa33458be8" y="45.331416"/>
      </g>
     </g>
     <g id="text_7">
      <!-- 0.075 -->
      <defs>
       <path d="M 8.203125 72.90625 
L 55.078125 72.90625 
L 55.078125 68.703125 
L 28.609375 0 
L 18.3125 0 
L 43.21875 64.59375 
L 8.203125 64.59375 
z
" id="DejaVuSans-55"/>
      </defs>
      <g transform="translate(20.573125 47.610947)scale(0.06 -0.06)">
       <use xlink:href="#DejaVuSans-48"/>
       <use x="63.623047" xlink:href="#DejaVuSans-46"/>
       <use x="95.410156" xlink:href="#DejaVuSans-48"/>
       <use x="159.033203" xlink:href="#DejaVuSans-55"/>
       <use x="222.65625" xlink:href="#DejaVuSans-53"/>
      </g>
     </g>
    </g>
    <g id="ytick_5">
     <g id="line2d_7">
      <g>
       <use style="stroke:#000000;stroke-width:0.8;" x="44.75" xlink:href="#maa33458be8" y="31.080629"/>
      </g>
     </g>
     <g id="text_8">
      <!-- 0.100 -->
      <defs>
       <path d="M 12.40625 8.296875 
L 28.515625 8.296875 
L 28.515625 63.921875 
L 10.984375 60.40625 
L 10.984375 69.390625 
L 28.421875 72.90625 
L 38.28125 72.90625 
L 38.28125 8.296875 
L 54.390625 8.296875 
L 54.390625 0 
L 12.40625 0 
z
" id="DejaVuSans-49"/>
      </defs>
      <g transform="translate(20.573125 33.360161)scale(0.06 -0.06)">
       <use xlink:href="#DejaVuSans-48"/>
       <use x="63.623047" xlink:href="#DejaVuSans-46"/>
       <use x="95.410156" xlink:href="#DejaVuSans-49"/>
       <use x="159.033203" xlink:href="#DejaVuSans-48"/>
       <use x="222.65625" xlink:href="#DejaVuSans-48"/>
      </g>
     </g>
    </g>
    <g id="text_9">
     <!-- Noise Correlation ($r_{sc}$) -->
     <defs>
      <path d="M 9.8125 72.90625 
L 23.09375 72.90625 
L 55.421875 11.921875 
L 55.421875 72.90625 
L 64.984375 72.90625 
L 64.984375 0 
L 51.703125 0 
L 19.390625 60.984375 
L 19.390625 0 
L 9.8125 0 
z
" id="DejaVuSans-78"/>
      <path d="M 64.40625 67.28125 
L 64.40625 56.890625 
Q 59.421875 61.53125 53.78125 63.8125 
Q 48.140625 66.109375 41.796875 66.109375 
Q 29.296875 66.109375 22.65625 58.46875 
Q 16.015625 50.828125 16.015625 36.375 
Q 16.015625 21.96875 22.65625 14.328125 
Q 29.296875 6.6875 41.796875 6.6875 
Q 48.140625 6.6875 53.78125 8.984375 
Q 59.421875 11.28125 64.40625 15.921875 
L 64.40625 5.609375 
Q 59.234375 2.09375 53.4375 0.328125 
Q 47.65625 -1.421875 41.21875 -1.421875 
Q 24.65625 -1.421875 15.125 8.703125 
Q 5.609375 18.84375 5.609375 36.375 
Q 5.609375 53.953125 15.125 64.078125 
Q 24.65625 74.21875 41.21875 74.21875 
Q 47.75 74.21875 53.53125 72.484375 
Q 59.328125 70.75 64.40625 67.28125 
z
" id="DejaVuSans-67"/>
      <path d="M 9.421875 75.984375 
L 18.40625 75.984375 
L 18.40625 0 
L 9.421875 0 
z
" id="DejaVuSans-108"/>
      <path d="M 54.890625 33.015625 
L 54.890625 0 
L 45.90625 0 
L 45.90625 32.71875 
Q 45.90625 40.484375 42.875 44.328125 
Q 39.84375 48.1875 33.796875 48.1875 
Q 26.515625 48.1875 22.3125 43.546875 
Q 18.109375 38.921875 18.109375 30.90625 
L 18.109375 0 
L 9.078125 0 
L 9.078125 54.6875 
L 18.109375 54.6875 
L 18.109375 46.1875 
Q 21.34375 51.125 25.703125 53.5625 
Q 30.078125 56 35.796875 56 
Q 45.21875 56 50.046875 50.171875 
Q 54.890625 44.34375 54.890625 33.015625 
z
" id="DejaVuSans-110"/>
      <path d="M 31 75.875 
Q 24.46875 64.65625 21.28125 53.65625 
Q 18.109375 42.671875 18.109375 31.390625 
Q 18.109375 20.125 21.3125 9.0625 
Q 24.515625 -2 31 -13.1875 
L 23.1875 -13.1875 
Q 15.875 -1.703125 12.234375 9.375 
Q 8.59375 20.453125 8.59375 31.390625 
Q 8.59375 42.28125 12.203125 53.3125 
Q 15.828125 64.359375 23.1875 75.875 
z
" id="DejaVuSans-40"/>
      <path d="M 44.578125 46.390625 
Q 43.21875 47.125 41.453125 47.515625 
Q 39.703125 47.90625 37.703125 47.90625 
Q 30.515625 47.90625 25.140625 42.453125 
Q 19.78125 37.015625 18.015625 27.875 
L 12.5 0 
L 3.515625 0 
L 14.203125 54.6875 
L 23.1875 54.6875 
L 21.484375 46.1875 
Q 25.046875 50.921875 30 53.453125 
Q 34.96875 56 40.578125 56 
Q 42.046875 56 43.453125 55.828125 
Q 44.875 55.671875 46.296875 55.28125 
z
" id="DejaVuSans-Oblique-114"/>
      <path d="M 50 53.078125 
L 48.296875 44.578125 
Q 44.734375 46.53125 40.765625 47.5 
Q 36.8125 48.484375 32.625 48.484375 
Q 25.53125 48.484375 21.453125 46.0625 
Q 17.390625 43.65625 17.390625 39.5 
Q 17.390625 34.671875 26.859375 32.078125 
Q 27.59375 31.890625 27.9375 31.78125 
L 30.8125 30.90625 
Q 39.796875 28.421875 42.796875 25.6875 
Q 45.796875 22.953125 45.796875 18.21875 
Q 45.796875 9.515625 38.890625 4.046875 
Q 31.984375 -1.421875 20.796875 -1.421875 
Q 16.453125 -1.421875 11.671875 -0.578125 
Q 6.890625 0.25 1.125 2 
L 2.875 11.28125 
Q 7.8125 8.734375 12.59375 7.421875 
Q 17.390625 6.109375 21.78125 6.109375 
Q 28.375 6.109375 32.5 8.9375 
Q 36.625 11.765625 36.625 16.109375 
Q 36.625 20.796875 25.78125 23.6875 
L 24.859375 23.921875 
L 21.78125 24.703125 
Q 14.9375 26.515625 11.765625 29.46875 
Q 8.59375 32.421875 8.59375 37.015625 
Q 8.59375 45.75 15.15625 50.875 
Q 21.734375 56 33.015625 56 
Q 37.453125 56 41.671875 55.265625 
Q 45.90625 54.546875 50 53.078125 
z
" id="DejaVuSans-Oblique-115"/>
      <path d="M 53.609375 52.59375 
L 51.8125 43.703125 
Q 48.578125 46.046875 44.9375 47.21875 
Q 41.3125 48.390625 37.40625 48.390625 
Q 33.109375 48.390625 29.21875 46.875 
Q 25.34375 45.359375 22.703125 42.578125 
Q 18.5 38.328125 16.203125 32.609375 
Q 13.921875 26.90625 13.921875 20.796875 
Q 13.921875 13.421875 17.609375 9.8125 
Q 21.296875 6.203125 28.8125 6.203125 
Q 32.515625 6.203125 36.6875 7.328125 
Q 40.875 8.453125 45.40625 10.6875 
L 43.703125 1.8125 
Q 39.796875 0.203125 35.671875 -0.609375 
Q 31.546875 -1.421875 27.203125 -1.421875 
Q 16.3125 -1.421875 10.453125 4.015625 
Q 4.59375 9.46875 4.59375 19.578125 
Q 4.59375 28.078125 7.640625 35.234375 
Q 10.6875 42.390625 16.703125 48.09375 
Q 20.796875 52 26.3125 54 
Q 31.84375 56 38.375 56 
Q 42.1875 56 45.9375 55.140625 
Q 49.703125 54.296875 53.609375 52.59375 
z
" id="DejaVuSans-Oblique-99"/>
      <path d="M 8.015625 75.875 
L 15.828125 75.875 
Q 23.140625 64.359375 26.78125 53.3125 
Q 30.421875 42.28125 30.421875 31.390625 
Q 30.421875 20.453125 26.78125 9.375 
Q 23.140625 -1.703125 15.828125 -13.1875 
L 8.015625 -13.1875 
Q 14.5 -2 17.703125 9.0625 
Q 20.90625 20.125 20.90625 31.390625 
Q 20.90625 42.671875 17.703125 53.65625 
Q 14.5 64.65625 8.015625 75.875 
z
" id="DejaVuSans-41"/>
     </defs>
     <g transform="translate(15.325312 92.402203)rotate(-90)scale(0.06 -0.06)">
      <use transform="translate(0 0.015625)" xlink:href="#DejaVuSans-78"/>
      <use transform="translate(74.804688 0.015625)" xlink:href="#DejaVuSans-111"/>
      <use transform="translate(135.986328 0.015625)" xlink:href="#DejaVuSans-105"/>
      <use transform="translate(163.769531 0.015625)" xlink:href="#DejaVuSans-115"/>
      <use transform="translate(215.869141 0.015625)" xlink:href="#DejaVuSans-101"/>
      <use transform="translate(277.392578 0.015625)" xlink:href="#DejaVuSans-32"/>
      <use transform="translate(309.179688 0.015625)" xlink:href="#DejaVuSans-67"/>
      <use transform="translate(379.003906 0.015625)" xlink:href="#DejaVuSans-111"/>
      <use transform="translate(440.185547 0.015625)" xlink:href="#DejaVuSans-114"/>
      <use transform="translate(481.298828 0.015625)" xlink:href="#DejaVuSans-114"/>
      <use transform="translate(522.412109 0.015625)" xlink:href="#DejaVuSans-101"/>
      <use transform="translate(583.935547 0.015625)" xlink:href="#DejaVuSans-108"/>
      <use transform="translate(611.71875 0.015625)" xlink:href="#DejaVuSans-97"/>
      <use transform="translate(672.998047 0.015625)" xlink:href="#DejaVuSans-116"/>
      <use transform="translate(712.207031 0.015625)" xlink:href="#DejaVuSans-105"/>
      <use transform="translate(739.990234 0.015625)" xlink:href="#DejaVuSans-111"/>
      <use transform="translate(801.171875 0.015625)" xlink:href="#DejaVuSans-110"/>
      <use transform="translate(864.550781 0.015625)" xlink:href="#DejaVuSans-32"/>
      <use transform="translate(896.337891 0.015625)" xlink:href="#DejaVuSans-40"/>
      <use transform="translate(935.351562 0.015625)" xlink:href="#DejaVuSans-Oblique-114"/>
      <use transform="translate(976.464844 -16.390625)scale(0.7)" xlink:href="#DejaVuSans-Oblique-115"/>
      <use transform="translate(1012.93457 -16.390625)scale(0.7)" xlink:href="#DejaVuSans-Oblique-99"/>
      <use transform="translate(1054.155273 0.015625)" xlink:href="#DejaVuSans-41"/>
     </g>
    </g>
   </g>
   <g id="line2d_8">
    <path clip-path="url(#p8591cdf7b2)" d="M 81.1884 65.197475 
L 99.4076 48.367807 
" style="fill:none;stroke:#ff7f0e;stroke-linecap:square;stroke-width:0.8;"/>
   </g>
   <g id="line2d_9">
    <path clip-path="url(#p8591cdf7b2)" d="M 81.1884 83.936762 
L 99.4076 73.132979 
" style="fill:none;stroke:#ff7f0e;stroke-linecap:square;stroke-width:0.8;"/>
   </g>
   <g id="line2d_10">
    <path clip-path="url(#p8591cdf7b2)" d="M 81.1884 82.44894 
L 99.4076 62.238876 
" style="fill:none;stroke:#ff7f0e;stroke-linecap:square;stroke-width:0.8;"/>
   </g>
   <g id="line2d_11">
    <path clip-path="url(#p8591cdf7b2)" d="M 81.1884 86.948978 
L 99.4076 74.531478 
" style="fill:none;stroke:#ff7f0e;stroke-linecap:square;stroke-width:0.8;"/>
   </g>
   <g id="line2d_12">
    <path clip-path="url(#p8591cdf7b2)" d="M 81.1884 78.712272 
L 99.4076 44.123579 
" style="fill:none;stroke:#ff7f0e;stroke-linecap:square;stroke-width:0.8;"/>
   </g>
   <g id="line2d_13">
    <path clip-path="url(#p8591cdf7b2)" d="M 81.1884 56.086218 
L 99.4076 59.853499 
" style="fill:none;stroke:#ff7f0e;stroke-linecap:square;stroke-width:0.8;"/>
   </g>
   <g id="line2d_14">
    <path clip-path="url(#p8591cdf7b2)" d="M 81.1884 73.869053 
L 99.4076 31.196939 
" style="fill:none;stroke:#ff7f0e;stroke-linecap:square;stroke-width:0.8;"/>
   </g>
   <g id="line2d_15">
    <path clip-path="url(#p8591cdf7b2)" d="M 81.1884 71.099357 
L 99.4076 59.507904 
" style="fill:none;stroke:#ff7f0e;stroke-linecap:square;stroke-width:0.8;"/>
   </g>
   <g id="line2d_16">
    <path clip-path="url(#p8591cdf7b2)" d="M 81.1884 74.533465 
L 99.4076 64.866762 
" style="fill:none;stroke:#ff7f0e;stroke-linecap:square;stroke-width:0.8;"/>
   </g>
   <g id="line2d_17">
    <path clip-path="url(#p8591cdf7b2)" d="M 81.1884 59.543879 
L 99.4076 36.094578 
" style="fill:none;stroke:#ff7f0e;stroke-linecap:square;stroke-width:0.8;"/>
   </g>
   <g id="line2d_18">
    <path clip-path="url(#p8591cdf7b2)" d="M 81.1884 81.258026 
L 99.4076 47.997179 
" style="fill:none;stroke:#ff7f0e;stroke-linecap:square;stroke-width:0.8;"/>
   </g>
   <g id="line2d_19">
    <path clip-path="url(#p8591cdf7b2)" d="M 81.1884 60.487976 
L 99.4076 59.801079 
" style="fill:none;stroke:#ff7f0e;stroke-linecap:square;stroke-width:0.8;"/>
   </g>
   <g id="line2d_20">
    <path clip-path="url(#p8591cdf7b2)" d="M 81.1884 142.494537 
L 99.4076 76.673468 
" style="fill:none;stroke:#1f77b4;stroke-linecap:square;stroke-width:0.8;"/>
   </g>
   <g id="line2d_21">
    <path clip-path="url(#p8591cdf7b2)" d="M 81.1884 78.956486 
L 99.4076 61.627341 
" style="fill:none;stroke:#1f77b4;stroke-linecap:square;stroke-width:0.8;"/>
   </g>
   <g id="line2d_22">
    <path clip-path="url(#p8591cdf7b2)" d="M 81.1884 90.050029 
L 99.4076 80.852099 
" style="fill:none;stroke:#1f77b4;stroke-linecap:square;stroke-width:0.8;"/>
   </g>
   <g id="line2d_23">
    <path clip-path="url(#p8591cdf7b2)" d="M 81.1884 82.567678 
L 99.4076 51.00656 
" style="fill:none;stroke:#1f77b4;stroke-linecap:square;stroke-width:0.8;"/>
   </g>
   <g id="line2d_24">
    <path clip-path="url(#p8591cdf7b2)" d="M 81.1884 64.949886 
L 99.4076 46.053475 
" style="fill:none;stroke:#1f77b4;stroke-linecap:square;stroke-width:0.8;"/>
   </g>
   <g id="line2d_25">
    <path clip-path="url(#p8591cdf7b2)" d="M 81.1884 68.439462 
L 99.4076 52.807301 
" style="fill:none;stroke:#1f77b4;stroke-linecap:square;stroke-width:0.8;"/>
   </g>
   <g id="line2d_26">
    <path clip-path="url(#p8591cdf7b2)" d="M 81.1884 76.596917 
L 99.4076 83.788504 
" style="fill:none;stroke:#1f77b4;stroke-linecap:square;stroke-width:0.8;"/>
   </g>
   <g id="line2d_27">
    <path clip-path="url(#p8591cdf7b2)" d="M 81.1884 80.45911 
L 99.4076 69.997098 
" style="fill:none;stroke:#1f77b4;stroke-linecap:square;stroke-width:0.8;"/>
   </g>
   <g id="line2d_28">
    <path clip-path="url(#p8591cdf7b2)" d="M 81.1884 62.898207 
L 99.4076 25.277549 
" style="fill:none;stroke:#2ca02c;stroke-linecap:square;stroke-width:0.8;"/>
   </g>
   <g id="line2d_29">
    <path clip-path="url(#p8591cdf7b2)" d="M 81.1884 82.388139 
L 99.4076 47.174471 
" style="fill:none;stroke:#2ca02c;stroke-linecap:square;stroke-width:0.8;"/>
   </g>
   <g id="line2d_30">
    <path clip-path="url(#p8591cdf7b2)" d="M 81.1884 43.909115 
L 99.4076 57.701107 
" style="fill:none;stroke:#2ca02c;stroke-linecap:square;stroke-width:0.8;"/>
   </g>
   <g id="line2d_31">
    <path clip-path="url(#p8591cdf7b2)" d="M 81.1884 88.887071 
L 99.4076 60.266042 
" style="fill:none;stroke:#2ca02c;stroke-linecap:square;stroke-width:0.8;"/>
   </g>
   <g id="line2d_32">
    <path clip-path="url(#p8591cdf7b2)" d="M 81.1884 33.726652 
L 99.4076 65.296525 
" style="fill:none;stroke:#2ca02c;stroke-linecap:square;stroke-width:0.8;"/>
   </g>
   <g id="line2d_33">
    <path clip-path="url(#p8591cdf7b2)" d="M 81.1884 59.001847 
L 99.4076 58.020021 
" style="fill:none;stroke:#d62728;stroke-linecap:square;stroke-width:0.8;"/>
   </g>
   <g id="line2d_34">
    <path clip-path="url(#p8591cdf7b2)" d="M 81.1884 39.073856 
L 99.4076 26.438883 
" style="fill:none;stroke:#d62728;stroke-linecap:square;stroke-width:0.8;"/>
   </g>
   <g id="line2d_35">
    <path clip-path="url(#p8591cdf7b2)" d="M 81.1884 87.279155 
L 99.4076 68.810214 
" style="fill:none;stroke:#d62728;stroke-linecap:square;stroke-width:0.8;"/>
   </g>
   <g id="line2d_36">
    <path clip-path="url(#p8591cdf7b2)" d="M 44.75 88.083776 
L 135.846 88.083776 
" style="fill:none;stroke:#000000;stroke-dasharray:5.55,2.4;stroke-dashoffset:0;stroke-width:1.5;"/>
   </g>
   <g id="patch_3">
    <path d="M 44.75 99.484406 
L 44.75 19.68 
" style="fill:none;stroke:#000000;stroke-linecap:square;stroke-linejoin:miter;stroke-width:0.8;"/>
   </g>
   <g id="patch_4">
    <path d="M 44.75 99.484406 
L 135.846 99.484406 
" style="fill:none;stroke:#000000;stroke-linecap:square;stroke-linejoin:miter;stroke-width:0.8;"/>
   </g>
  </g>
  <g id="axes_2">
   <g id="patch_5">
    <path d="M 187.904 99.484406 
L 279 99.484406 
L 279 19.68 
L 187.904 19.68 
z
" style="fill:#ffffff;"/>
   </g>
   <g id="PathCollection_1">
    <defs>
     <path d="M 0 1.118034 
C 0.296506 1.118034 0.580908 1.000231 0.790569 0.790569 
C 1.000231 0.580908 1.118034 0.296506 1.118034 0 
C 1.118034 -0.296506 1.000231 -0.580908 0.790569 -0.790569 
C 0.580908 -1.000231 0.296506 -1.118034 0 -1.118034 
C -0.296506 -1.118034 -0.580908 -1.000231 -0.790569 -0.790569 
C -1.000231 -0.580908 -1.118034 -0.296506 -1.118034 0 
C -1.118034 0.296506 -1.000231 0.580908 -0.790569 0.790569 
C -0.580908 1.000231 -0.296506 1.118034 0 1.118034 
z
" id="mee38e66111" style="stroke:#ff7f0e;"/>
    </defs>
    <g clip-path="url(#p0aefbfa825)">
     <use style="fill:#ff7f0e;stroke:#ff7f0e;" x="212.110826" xlink:href="#mee38e66111" y="59.261527"/>
    </g>
   </g>
   <g id="PathCollection_2">
    <g clip-path="url(#p0aefbfa825)">
     <use style="fill:#ff7f0e;stroke:#ff7f0e;" x="222.225033" xlink:href="#mee38e66111" y="60.74736"/>
    </g>
   </g>
   <g id="PathCollection_3">
    <g clip-path="url(#p0aefbfa825)">
     <use style="fill:#ff7f0e;stroke:#ff7f0e;" x="249.81671" xlink:href="#mee38e66111" y="58.428006"/>
    </g>
   </g>
   <g id="PathCollection_4">
    <g clip-path="url(#p0aefbfa825)">
     <use style="fill:#ff7f0e;stroke:#ff7f0e;" x="263.19112" xlink:href="#mee38e66111" y="60.349458"/>
    </g>
   </g>
   <g id="PathCollection_5">
    <g clip-path="url(#p0aefbfa825)">
     <use style="fill:#ff7f0e;stroke:#ff7f0e;" x="260.939716" xlink:href="#mee38e66111" y="54.240738"/>
     <use style="fill:#ff7f0e;stroke:#ff7f0e;" x="249.139914" xlink:href="#mee38e66111" y="63.712453"/>
     <use style="fill:#ff7f0e;stroke:#ff7f0e;" x="241.933549" xlink:href="#mee38e66111" y="44.945586"/>
     <use style="fill:#ff7f0e;stroke:#ff7f0e;" x="250.908524" xlink:href="#mee38e66111" y="59.414839"/>
     <use style="fill:#ff7f0e;stroke:#ff7f0e;" x="236.597148" xlink:href="#mee38e66111" y="52.530755"/>
    </g>
   </g>
   <g id="PathCollection_6">
    <g clip-path="url(#p0aefbfa825)">
     <use style="fill:#ff7f0e;stroke:#ff7f0e;" x="236.30233" xlink:href="#mee38e66111" y="66.223272"/>
     <use style="fill:#ff7f0e;stroke:#ff7f0e;" x="232.278915" xlink:href="#mee38e66111" y="59.393476"/>
     <use style="fill:#ff7f0e;stroke:#ff7f0e;" x="255.788301" xlink:href="#mee38e66111" y="62.094952"/>
     <use style="fill:#ff7f0e;stroke:#ff7f0e;" x="236.331488" xlink:href="#mee38e66111" y="71.312951"/>
     <use style="fill:#ff7f0e;stroke:#ff7f0e;" x="247.620242" xlink:href="#mee38e66111" y="61.653799"/>
    </g>
   </g>
   <g id="PathCollection_7">
    <g clip-path="url(#p0aefbfa825)">
     <use style="fill:#ff7f0e;stroke:#ff7f0e;" x="240.65122" xlink:href="#mee38e66111" y="70.451515"/>
     <use style="fill:#ff7f0e;stroke:#ff7f0e;" x="260.875892" xlink:href="#mee38e66111" y="60.88952"/>
     <use style="fill:#ff7f0e;stroke:#ff7f0e;" x="255.021972" xlink:href="#mee38e66111" y="43.356712"/>
     <use style="fill:#ff7f0e;stroke:#ff7f0e;" x="258.081203" xlink:href="#mee38e66111" y="23.519402"/>
     <use style="fill:#ff7f0e;stroke:#ff7f0e;" x="255.781176" xlink:href="#mee38e66111" y="66.22998"/>
    </g>
   </g>
   <g id="PathCollection_8">
    <g clip-path="url(#p0aefbfa825)">
     <use style="fill:#ff7f0e;stroke:#ff7f0e;" x="238.997636" xlink:href="#mee38e66111" y="57.242726"/>
     <use style="fill:#ff7f0e;stroke:#ff7f0e;" x="243.948765" xlink:href="#mee38e66111" y="58.649157"/>
     <use style="fill:#ff7f0e;stroke:#ff7f0e;" x="242.618999" xlink:href="#mee38e66111" y="63.827603"/>
     <use style="fill:#ff7f0e;stroke:#ff7f0e;" x="259.13294" xlink:href="#mee38e66111" y="62.012561"/>
     <use style="fill:#ff7f0e;stroke:#ff7f0e;" x="246.661624" xlink:href="#mee38e66111" y="59.95231"/>
    </g>
   </g>
   <g id="PathCollection_9">
    <g clip-path="url(#p0aefbfa825)">
     <use style="fill:#ff7f0e;stroke:#ff7f0e;" x="245.520706" xlink:href="#mee38e66111" y="60.406109"/>
     <use style="fill:#ff7f0e;stroke:#ff7f0e;" x="234.74217" xlink:href="#mee38e66111" y="72.829841"/>
     <use style="fill:#ff7f0e;stroke:#ff7f0e;" x="263.217563" xlink:href="#mee38e66111" y="50.019081"/>
     <use style="fill:#ff7f0e;stroke:#ff7f0e;" x="248.612222" xlink:href="#mee38e66111" y="63.550655"/>
     <use style="fill:#ff7f0e;stroke:#ff7f0e;" x="272.341722" xlink:href="#mee38e66111" y="58.109815"/>
    </g>
   </g>
   <g id="PathCollection_10">
    <g clip-path="url(#p0aefbfa825)">
     <use style="fill:#ff7f0e;stroke:#ff7f0e;" x="249.678436" xlink:href="#mee38e66111" y="52.034065"/>
     <use style="fill:#ff7f0e;stroke:#ff7f0e;" x="254.765457" xlink:href="#mee38e66111" y="57.374241"/>
     <use style="fill:#ff7f0e;stroke:#ff7f0e;" x="249.400672" xlink:href="#mee38e66111" y="54.156042"/>
     <use style="fill:#ff7f0e;stroke:#ff7f0e;" x="258.591635" xlink:href="#mee38e66111" y="64.874135"/>
     <use style="fill:#ff7f0e;stroke:#ff7f0e;" x="250.672592" xlink:href="#mee38e66111" y="59.909213"/>
    </g>
   </g>
   <g id="PathCollection_11">
    <g clip-path="url(#p0aefbfa825)">
     <use style="fill:#ff7f0e;stroke:#ff7f0e;" x="250.859352" xlink:href="#mee38e66111" y="55.210009"/>
    </g>
   </g>
   <g id="PathCollection_12">
    <g clip-path="url(#p0aefbfa825)">
     <use style="fill:#ff7f0e;stroke:#ff7f0e;" x="195.668722" xlink:href="#mee38e66111" y="65.821704"/>
     <use style="fill:#ff7f0e;stroke:#ff7f0e;" x="244.040121" xlink:href="#mee38e66111" y="64.207367"/>
     <use style="fill:#ff7f0e;stroke:#ff7f0e;" x="215.647616" xlink:href="#mee38e66111" y="61.92658"/>
     <use style="fill:#ff7f0e;stroke:#ff7f0e;" x="248.42506" xlink:href="#mee38e66111" y="65.81841"/>
     <use style="fill:#ff7f0e;stroke:#ff7f0e;" x="225.678171" xlink:href="#mee38e66111" y="59.079986"/>
    </g>
   </g>
   <g id="PathCollection_13">
    <defs>
     <path d="M 0 1.118034 
C 0.296506 1.118034 0.580908 1.000231 0.790569 0.790569 
C 1.000231 0.580908 1.118034 0.296506 1.118034 0 
C 1.118034 -0.296506 1.000231 -0.580908 0.790569 -0.790569 
C 0.580908 -1.000231 0.296506 -1.118034 0 -1.118034 
C -0.296506 -1.118034 -0.580908 -1.000231 -0.790569 -0.790569 
C -1.000231 -0.580908 -1.118034 -0.296506 -1.118034 0 
C -1.118034 0.296506 -1.000231 0.580908 -0.790569 0.790569 
C -0.580908 1.000231 -0.296506 1.118034 0 1.118034 
z
" id="m2f5306734d" style="stroke:#1f77b4;"/>
    </defs>
    <g clip-path="url(#p0aefbfa825)">
     <use style="fill:#1f77b4;stroke:#1f77b4;" x="265.93992" xlink:href="#m2f5306734d" y="31.999173"/>
     <use style="fill:#1f77b4;stroke:#1f77b4;" x="266.338551" xlink:href="#m2f5306734d" y="71.700638"/>
     <use style="fill:#1f77b4;stroke:#1f77b4;" x="265.93992" xlink:href="#m2f5306734d" y="30.253448"/>
    </g>
   </g>
   <g id="PathCollection_14">
    <g clip-path="url(#p0aefbfa825)">
     <use style="fill:#1f77b4;stroke:#1f77b4;" x="262.4519" xlink:href="#m2f5306734d" y="62.158304"/>
     <use style="fill:#1f77b4;stroke:#1f77b4;" x="261.206179" xlink:href="#m2f5306734d" y="64.544256"/>
     <use style="fill:#1f77b4;stroke:#1f77b4;" x="262.4519" xlink:href="#m2f5306734d" y="50.165364"/>
    </g>
   </g>
   <g id="PathCollection_15">
    <g clip-path="url(#p0aefbfa825)">
     <use style="fill:#1f77b4;stroke:#1f77b4;" x="236.239093" xlink:href="#m2f5306734d" y="71.29996"/>
     <use style="fill:#1f77b4;stroke:#1f77b4;" x="240.292078" xlink:href="#m2f5306734d" y="54.451396"/>
     <use style="fill:#1f77b4;stroke:#1f77b4;" x="236.239093" xlink:href="#m2f5306734d" y="57.678614"/>
    </g>
   </g>
   <g id="PathCollection_16">
    <g clip-path="url(#p0aefbfa825)">
     <use style="fill:#1f77b4;stroke:#1f77b4;" x="257.065984" xlink:href="#m2f5306734d" y="62.703505"/>
     <use style="fill:#1f77b4;stroke:#1f77b4;" x="269.721051" xlink:href="#m2f5306734d" y="60.340666"/>
     <use style="fill:#1f77b4;stroke:#1f77b4;" x="269.721051" xlink:href="#m2f5306734d" y="43.843184"/>
    </g>
   </g>
   <g id="PathCollection_17">
    <g clip-path="url(#p0aefbfa825)">
     <use style="fill:#1f77b4;stroke:#1f77b4;" x="265.93992" xlink:href="#m2f5306734d" y="49.080325"/>
     <use style="fill:#1f77b4;stroke:#1f77b4;" x="266.338551" xlink:href="#m2f5306734d" y="61.966017"/>
     <use style="fill:#1f77b4;stroke:#1f77b4;" x="265.93992" xlink:href="#m2f5306734d" y="61.290609"/>
    </g>
   </g>
   <g id="PathCollection_18">
    <g clip-path="url(#p0aefbfa825)">
     <use style="fill:#1f77b4;stroke:#1f77b4;" x="262.4519" xlink:href="#m2f5306734d" y="62.066955"/>
     <use style="fill:#1f77b4;stroke:#1f77b4;" x="261.206179" xlink:href="#m2f5306734d" y="67.452809"/>
     <use style="fill:#1f77b4;stroke:#1f77b4;" x="262.4519" xlink:href="#m2f5306734d" y="49.290096"/>
    </g>
   </g>
   <g id="PathCollection_19">
    <g clip-path="url(#p0aefbfa825)">
     <use style="fill:#1f77b4;stroke:#1f77b4;" x="236.239093" xlink:href="#m2f5306734d" y="62.931889"/>
     <use style="fill:#1f77b4;stroke:#1f77b4;" x="240.292078" xlink:href="#m2f5306734d" y="70.735218"/>
     <use style="fill:#1f77b4;stroke:#1f77b4;" x="236.239093" xlink:href="#m2f5306734d" y="61.496531"/>
    </g>
   </g>
   <g id="PathCollection_20">
    <g clip-path="url(#p0aefbfa825)">
     <use style="fill:#1f77b4;stroke:#1f77b4;" x="257.065984" xlink:href="#m2f5306734d" y="64.50917"/>
     <use style="fill:#1f77b4;stroke:#1f77b4;" x="269.721051" xlink:href="#m2f5306734d" y="59.580587"/>
     <use style="fill:#1f77b4;stroke:#1f77b4;" x="269.721051" xlink:href="#m2f5306734d" y="58.144669"/>
    </g>
   </g>
   <g id="PathCollection_21">
    <defs>
     <path d="M 0 1.118034 
C 0.296506 1.118034 0.580908 1.000231 0.790569 0.790569 
C 1.000231 0.580908 1.118034 0.296506 1.118034 0 
C 1.118034 -0.296506 1.000231 -0.580908 0.790569 -0.790569 
C 0.580908 -1.000231 0.296506 -1.118034 0 -1.118034 
C -0.296506 -1.118034 -0.580908 -1.000231 -0.790569 -0.790569 
C -1.000231 -0.580908 -1.118034 -0.296506 -1.118034 0 
C -1.118034 0.296506 -1.000231 0.580908 -0.790569 0.790569 
C -0.580908 1.000231 -0.296506 1.118034 0 1.118034 
z
" id="me5df8fe955" style="stroke:#2ca02c;"/>
    </defs>
    <g clip-path="url(#p0aefbfa825)">
     <use style="fill:#2ca02c;stroke:#2ca02c;" x="203.737256" xlink:href="#me5df8fe955" y="52.610122"/>
     <use style="fill:#2ca02c;stroke:#2ca02c;" x="268.998386" xlink:href="#me5df8fe955" y="49.038846"/>
     <use style="fill:#2ca02c;stroke:#2ca02c;" x="268.809381" xlink:href="#me5df8fe955" y="60.755994"/>
    </g>
   </g>
   <g id="PathCollection_22">
    <g clip-path="url(#p0aefbfa825)">
     <use style="fill:#2ca02c;stroke:#2ca02c;" x="219.223472" xlink:href="#me5df8fe955" y="56.709215"/>
     <use style="fill:#2ca02c;stroke:#2ca02c;" x="274.181341" xlink:href="#me5df8fe955" y="57.742523"/>
     <use style="fill:#2ca02c;stroke:#2ca02c;" x="267.572373" xlink:href="#me5df8fe955" y="49.535662"/>
    </g>
   </g>
   <g id="PathCollection_23">
    <g clip-path="url(#p0aefbfa825)">
     <use style="fill:#2ca02c;stroke:#2ca02c;" x="205.746611" xlink:href="#me5df8fe955" y="65.156205"/>
     <use style="fill:#2ca02c;stroke:#2ca02c;" x="263.946766" xlink:href="#me5df8fe955" y="68.191945"/>
    </g>
   </g>
   <g id="PathCollection_24">
    <g clip-path="url(#p0aefbfa825)">
     <use style="fill:#2ca02c;stroke:#2ca02c;" x="242.202991" xlink:href="#me5df8fe955" y="53.660154"/>
     <use style="fill:#2ca02c;stroke:#2ca02c;" x="270.293662" xlink:href="#me5df8fe955" y="59.040823"/>
    </g>
   </g>
   <g id="PathCollection_25">
    <g clip-path="url(#p0aefbfa825)">
     <use style="fill:#2ca02c;stroke:#2ca02c;" x="192.740615" xlink:href="#me5df8fe955" y="95.458378"/>
     <use style="fill:#2ca02c;stroke:#2ca02c;" x="243.044858" xlink:href="#me5df8fe955" y="52.324634"/>
    </g>
   </g>
   <g id="PathCollection_26">
    <defs>
     <path d="M 0 1.118034 
C 0.296506 1.118034 0.580908 1.000231 0.790569 0.790569 
C 1.000231 0.580908 1.118034 0.296506 1.118034 0 
C 1.118034 -0.296506 1.000231 -0.580908 0.790569 -0.790569 
C 0.580908 -1.000231 0.296506 -1.118034 0 -1.118034 
C -0.296506 -1.118034 -0.580908 -1.000231 -0.790569 -0.790569 
C -1.000231 -0.580908 -1.118034 -0.296506 -1.118034 0 
C -1.118034 0.296506 -1.000231 0.580908 -0.790569 0.790569 
C -0.580908 1.000231 -0.296506 1.118034 0 1.118034 
z
" id="me157f2f936" style="stroke:#d62728;"/>
    </defs>
    <g clip-path="url(#p0aefbfa825)">
     <use style="fill:#d62728;stroke:#d62728;" x="240.081991" xlink:href="#me157f2f936" y="61.842304"/>
     <use style="fill:#d62728;stroke:#d62728;" x="243.766062" xlink:href="#me157f2f936" y="67.077758"/>
     <use style="fill:#d62728;stroke:#d62728;" x="259.961095" xlink:href="#me157f2f936" y="61.217119"/>
    </g>
   </g>
   <g id="PathCollection_27">
    <g clip-path="url(#p0aefbfa825)">
     <use style="fill:#d62728;stroke:#d62728;" x="217.88272" xlink:href="#me157f2f936" y="59.257137"/>
     <use style="fill:#d62728;stroke:#d62728;" x="259.035057" xlink:href="#me157f2f936" y="58.527792"/>
     <use style="fill:#d62728;stroke:#d62728;" x="260.035593" xlink:href="#me157f2f936" y="63.097622"/>
    </g>
   </g>
   <g id="PathCollection_28">
    <g clip-path="url(#p0aefbfa825)">
     <use style="fill:#d62728;stroke:#d62728;" x="200.658874" xlink:href="#me157f2f936" y="64.665766"/>
     <use style="fill:#d62728;stroke:#d62728;" x="216.017598" xlink:href="#me157f2f936" y="66.330613"/>
     <use style="fill:#d62728;stroke:#d62728;" x="227.065596" xlink:href="#me157f2f936" y="44.330038"/>
    </g>
   </g>
   <g id="PathCollection_29">
    <defs>
     <path id="m49e0c70aec" style="stroke:#808080;stroke-opacity:0.8;stroke-width:1.5;"/>
    </defs>
    <g clip-path="url(#p0aefbfa825)">
     <use style="fill:#808080;fill-opacity:0.8;stroke:#808080;stroke-opacity:0.8;stroke-width:1.5;" x="195.668722" xlink:href="#m49e0c70aec" y="65.821704"/>
     <use style="fill:#808080;fill-opacity:0.8;stroke:#808080;stroke-opacity:0.8;stroke-width:1.5;" x="244.040121" xlink:href="#m49e0c70aec" y="64.207367"/>
     <use style="fill:#808080;fill-opacity:0.8;stroke:#808080;stroke-opacity:0.8;stroke-width:1.5;" x="249.678436" xlink:href="#m49e0c70aec" y="52.034065"/>
     <use style="fill:#808080;fill-opacity:0.8;stroke:#808080;stroke-opacity:0.8;stroke-width:1.5;" x="245.520706" xlink:href="#m49e0c70aec" y="60.406109"/>
     <use style="fill:#808080;fill-opacity:0.8;stroke:#808080;stroke-opacity:0.8;stroke-width:1.5;" x="240.65122" xlink:href="#m49e0c70aec" y="70.451515"/>
     <use style="fill:#808080;fill-opacity:0.8;stroke:#808080;stroke-opacity:0.8;stroke-width:1.5;" x="238.997636" xlink:href="#m49e0c70aec" y="57.242726"/>
     <use style="fill:#808080;fill-opacity:0.8;stroke:#808080;stroke-opacity:0.8;stroke-width:1.5;" x="236.30233" xlink:href="#m49e0c70aec" y="66.223272"/>
     <use style="fill:#808080;fill-opacity:0.8;stroke:#808080;stroke-opacity:0.8;stroke-width:1.5;" x="260.939716" xlink:href="#m49e0c70aec" y="54.240738"/>
     <use style="fill:#808080;fill-opacity:0.8;stroke:#808080;stroke-opacity:0.8;stroke-width:1.5;" x="215.647616" xlink:href="#m49e0c70aec" y="61.92658"/>
     <use style="fill:#808080;fill-opacity:0.8;stroke:#808080;stroke-opacity:0.8;stroke-width:1.5;" x="254.765457" xlink:href="#m49e0c70aec" y="57.374241"/>
     <use style="fill:#808080;fill-opacity:0.8;stroke:#808080;stroke-opacity:0.8;stroke-width:1.5;" x="234.74217" xlink:href="#m49e0c70aec" y="72.829841"/>
     <use style="fill:#808080;fill-opacity:0.8;stroke:#808080;stroke-opacity:0.8;stroke-width:1.5;" x="260.875892" xlink:href="#m49e0c70aec" y="60.88952"/>
     <use style="fill:#808080;fill-opacity:0.8;stroke:#808080;stroke-opacity:0.8;stroke-width:1.5;" x="243.948765" xlink:href="#m49e0c70aec" y="58.649157"/>
     <use style="fill:#808080;fill-opacity:0.8;stroke:#808080;stroke-opacity:0.8;stroke-width:1.5;" x="232.278915" xlink:href="#m49e0c70aec" y="59.393476"/>
     <use style="fill:#808080;fill-opacity:0.8;stroke:#808080;stroke-opacity:0.8;stroke-width:1.5;" x="249.139914" xlink:href="#m49e0c70aec" y="63.712453"/>
     <use style="fill:#808080;fill-opacity:0.8;stroke:#808080;stroke-opacity:0.8;stroke-width:1.5;" x="240.081991" xlink:href="#m49e0c70aec" y="61.842304"/>
     <use style="fill:#808080;fill-opacity:0.8;stroke:#808080;stroke-opacity:0.8;stroke-width:1.5;" x="203.737256" xlink:href="#m49e0c70aec" y="52.610122"/>
     <use style="fill:#808080;fill-opacity:0.8;stroke:#808080;stroke-opacity:0.8;stroke-width:1.5;" x="248.42506" xlink:href="#m49e0c70aec" y="65.81841"/>
     <use style="fill:#808080;fill-opacity:0.8;stroke:#808080;stroke-opacity:0.8;stroke-width:1.5;" x="219.223472" xlink:href="#m49e0c70aec" y="56.709215"/>
     <use style="fill:#808080;fill-opacity:0.8;stroke:#808080;stroke-opacity:0.8;stroke-width:1.5;" x="242.202991" xlink:href="#m49e0c70aec" y="53.660154"/>
     <use style="fill:#808080;fill-opacity:0.8;stroke:#808080;stroke-opacity:0.8;stroke-width:1.5;" x="217.88272" xlink:href="#m49e0c70aec" y="59.257137"/>
     <use style="fill:#808080;fill-opacity:0.8;stroke:#808080;stroke-opacity:0.8;stroke-width:1.5;" x="249.400672" xlink:href="#m49e0c70aec" y="54.156042"/>
     <use style="fill:#808080;fill-opacity:0.8;stroke:#808080;stroke-opacity:0.8;stroke-width:1.5;" x="205.746611" xlink:href="#m49e0c70aec" y="65.156205"/>
     <use style="fill:#808080;fill-opacity:0.8;stroke:#808080;stroke-opacity:0.8;stroke-width:1.5;" x="263.217563" xlink:href="#m49e0c70aec" y="50.019081"/>
     <use style="fill:#808080;fill-opacity:0.8;stroke:#808080;stroke-opacity:0.8;stroke-width:1.5;" x="255.021972" xlink:href="#m49e0c70aec" y="43.356712"/>
     <use style="fill:#808080;fill-opacity:0.8;stroke:#808080;stroke-opacity:0.8;stroke-width:1.5;" x="242.618999" xlink:href="#m49e0c70aec" y="63.827603"/>
     <use style="fill:#808080;fill-opacity:0.8;stroke:#808080;stroke-opacity:0.8;stroke-width:1.5;" x="200.658874" xlink:href="#m49e0c70aec" y="64.665766"/>
     <use style="fill:#808080;fill-opacity:0.8;stroke:#808080;stroke-opacity:0.8;stroke-width:1.5;" x="255.788301" xlink:href="#m49e0c70aec" y="62.094952"/>
     <use style="fill:#808080;fill-opacity:0.8;stroke:#808080;stroke-opacity:0.8;stroke-width:1.5;" x="241.933549" xlink:href="#m49e0c70aec" y="44.945586"/>
     <use style="fill:#808080;fill-opacity:0.8;stroke:#808080;stroke-opacity:0.8;stroke-width:1.5;" x="192.740615" xlink:href="#m49e0c70aec" y="95.458378"/>
     <use style="fill:#808080;fill-opacity:0.8;stroke:#808080;stroke-opacity:0.8;stroke-width:1.5;" x="243.766062" xlink:href="#m49e0c70aec" y="67.077758"/>
     <use style="fill:#808080;fill-opacity:0.8;stroke:#808080;stroke-opacity:0.8;stroke-width:1.5;" x="268.998386" xlink:href="#m49e0c70aec" y="49.038846"/>
     <use style="fill:#808080;fill-opacity:0.8;stroke:#808080;stroke-opacity:0.8;stroke-width:1.5;" x="225.678171" xlink:href="#m49e0c70aec" y="59.079986"/>
     <use style="fill:#808080;fill-opacity:0.8;stroke:#808080;stroke-opacity:0.8;stroke-width:1.5;" x="274.181341" xlink:href="#m49e0c70aec" y="57.742523"/>
     <use style="fill:#808080;fill-opacity:0.8;stroke:#808080;stroke-opacity:0.8;stroke-width:1.5;" x="270.293662" xlink:href="#m49e0c70aec" y="59.040823"/>
     <use style="fill:#808080;fill-opacity:0.8;stroke:#808080;stroke-opacity:0.8;stroke-width:1.5;" x="259.035057" xlink:href="#m49e0c70aec" y="58.527792"/>
     <use style="fill:#808080;fill-opacity:0.8;stroke:#808080;stroke-opacity:0.8;stroke-width:1.5;" x="258.591635" xlink:href="#m49e0c70aec" y="64.874135"/>
     <use style="fill:#808080;fill-opacity:0.8;stroke:#808080;stroke-opacity:0.8;stroke-width:1.5;" x="263.946766" xlink:href="#m49e0c70aec" y="68.191945"/>
     <use style="fill:#808080;fill-opacity:0.8;stroke:#808080;stroke-opacity:0.8;stroke-width:1.5;" x="248.612222" xlink:href="#m49e0c70aec" y="63.550655"/>
     <use style="fill:#808080;fill-opacity:0.8;stroke:#808080;stroke-opacity:0.8;stroke-width:1.5;" x="258.081203" xlink:href="#m49e0c70aec" y="23.519402"/>
     <use style="fill:#808080;fill-opacity:0.8;stroke:#808080;stroke-opacity:0.8;stroke-width:1.5;" x="259.13294" xlink:href="#m49e0c70aec" y="62.012561"/>
     <use style="fill:#808080;fill-opacity:0.8;stroke:#808080;stroke-opacity:0.8;stroke-width:1.5;" x="216.017598" xlink:href="#m49e0c70aec" y="66.330613"/>
     <use style="fill:#808080;fill-opacity:0.8;stroke:#808080;stroke-opacity:0.8;stroke-width:1.5;" x="236.331488" xlink:href="#m49e0c70aec" y="71.312951"/>
     <use style="fill:#808080;fill-opacity:0.8;stroke:#808080;stroke-opacity:0.8;stroke-width:1.5;" x="250.908524" xlink:href="#m49e0c70aec" y="59.414839"/>
     <use style="fill:#808080;fill-opacity:0.8;stroke:#808080;stroke-opacity:0.8;stroke-width:1.5;" x="243.044858" xlink:href="#m49e0c70aec" y="52.324634"/>
     <use style="fill:#808080;fill-opacity:0.8;stroke:#808080;stroke-opacity:0.8;stroke-width:1.5;" x="250.672592" xlink:href="#m49e0c70aec" y="59.909213"/>
     <use style="fill:#808080;fill-opacity:0.8;stroke:#808080;stroke-opacity:0.8;stroke-width:1.5;" x="272.341722" xlink:href="#m49e0c70aec" y="58.109815"/>
     <use style="fill:#808080;fill-opacity:0.8;stroke:#808080;stroke-opacity:0.8;stroke-width:1.5;" x="255.781176" xlink:href="#m49e0c70aec" y="66.22998"/>
     <use style="fill:#808080;fill-opacity:0.8;stroke:#808080;stroke-opacity:0.8;stroke-width:1.5;" x="246.661624" xlink:href="#m49e0c70aec" y="59.95231"/>
     <use style="fill:#808080;fill-opacity:0.8;stroke:#808080;stroke-opacity:0.8;stroke-width:1.5;" x="259.961095" xlink:href="#m49e0c70aec" y="61.217119"/>
     <use style="fill:#808080;fill-opacity:0.8;stroke:#808080;stroke-opacity:0.8;stroke-width:1.5;" x="268.809381" xlink:href="#m49e0c70aec" y="60.755994"/>
     <use style="fill:#808080;fill-opacity:0.8;stroke:#808080;stroke-opacity:0.8;stroke-width:1.5;" x="250.859352" xlink:href="#m49e0c70aec" y="55.210009"/>
     <use style="fill:#808080;fill-opacity:0.8;stroke:#808080;stroke-opacity:0.8;stroke-width:1.5;" x="265.93992" xlink:href="#m49e0c70aec" y="31.999173"/>
     <use style="fill:#808080;fill-opacity:0.8;stroke:#808080;stroke-opacity:0.8;stroke-width:1.5;" x="265.93992" xlink:href="#m49e0c70aec" y="49.080325"/>
     <use style="fill:#808080;fill-opacity:0.8;stroke:#808080;stroke-opacity:0.8;stroke-width:1.5;" x="267.572373" xlink:href="#m49e0c70aec" y="49.535662"/>
     <use style="fill:#808080;fill-opacity:0.8;stroke:#808080;stroke-opacity:0.8;stroke-width:1.5;" x="263.19112" xlink:href="#m49e0c70aec" y="60.349458"/>
     <use style="fill:#808080;fill-opacity:0.8;stroke:#808080;stroke-opacity:0.8;stroke-width:1.5;" x="236.239093" xlink:href="#m49e0c70aec" y="71.29996"/>
     <use style="fill:#808080;fill-opacity:0.8;stroke:#808080;stroke-opacity:0.8;stroke-width:1.5;" x="236.239093" xlink:href="#m49e0c70aec" y="62.931889"/>
     <use style="fill:#808080;fill-opacity:0.8;stroke:#808080;stroke-opacity:0.8;stroke-width:1.5;" x="262.4519" xlink:href="#m49e0c70aec" y="62.158304"/>
     <use style="fill:#808080;fill-opacity:0.8;stroke:#808080;stroke-opacity:0.8;stroke-width:1.5;" x="262.4519" xlink:href="#m49e0c70aec" y="62.066955"/>
     <use style="fill:#808080;fill-opacity:0.8;stroke:#808080;stroke-opacity:0.8;stroke-width:1.5;" x="260.035593" xlink:href="#m49e0c70aec" y="63.097622"/>
     <use style="fill:#808080;fill-opacity:0.8;stroke:#808080;stroke-opacity:0.8;stroke-width:1.5;" x="222.225033" xlink:href="#m49e0c70aec" y="60.74736"/>
     <use style="fill:#808080;fill-opacity:0.8;stroke:#808080;stroke-opacity:0.8;stroke-width:1.5;" x="266.338551" xlink:href="#m49e0c70aec" y="71.700638"/>
     <use style="fill:#808080;fill-opacity:0.8;stroke:#808080;stroke-opacity:0.8;stroke-width:1.5;" x="266.338551" xlink:href="#m49e0c70aec" y="61.966017"/>
     <use style="fill:#808080;fill-opacity:0.8;stroke:#808080;stroke-opacity:0.8;stroke-width:1.5;" x="257.065984" xlink:href="#m49e0c70aec" y="62.703505"/>
     <use style="fill:#808080;fill-opacity:0.8;stroke:#808080;stroke-opacity:0.8;stroke-width:1.5;" x="257.065984" xlink:href="#m49e0c70aec" y="64.50917"/>
     <use style="fill:#808080;fill-opacity:0.8;stroke:#808080;stroke-opacity:0.8;stroke-width:1.5;" x="265.93992" xlink:href="#m49e0c70aec" y="30.253448"/>
     <use style="fill:#808080;fill-opacity:0.8;stroke:#808080;stroke-opacity:0.8;stroke-width:1.5;" x="265.93992" xlink:href="#m49e0c70aec" y="61.290609"/>
     <use style="fill:#808080;fill-opacity:0.8;stroke:#808080;stroke-opacity:0.8;stroke-width:1.5;" x="269.721051" xlink:href="#m49e0c70aec" y="60.340666"/>
     <use style="fill:#808080;fill-opacity:0.8;stroke:#808080;stroke-opacity:0.8;stroke-width:1.5;" x="269.721051" xlink:href="#m49e0c70aec" y="59.580587"/>
     <use style="fill:#808080;fill-opacity:0.8;stroke:#808080;stroke-opacity:0.8;stroke-width:1.5;" x="261.206179" xlink:href="#m49e0c70aec" y="64.544256"/>
     <use style="fill:#808080;fill-opacity:0.8;stroke:#808080;stroke-opacity:0.8;stroke-width:1.5;" x="261.206179" xlink:href="#m49e0c70aec" y="67.452809"/>
     <use style="fill:#808080;fill-opacity:0.8;stroke:#808080;stroke-opacity:0.8;stroke-width:1.5;" x="262.4519" xlink:href="#m49e0c70aec" y="50.165364"/>
     <use style="fill:#808080;fill-opacity:0.8;stroke:#808080;stroke-opacity:0.8;stroke-width:1.5;" x="262.4519" xlink:href="#m49e0c70aec" y="49.290096"/>
     <use style="fill:#808080;fill-opacity:0.8;stroke:#808080;stroke-opacity:0.8;stroke-width:1.5;" x="227.065596" xlink:href="#m49e0c70aec" y="44.330038"/>
     <use style="fill:#808080;fill-opacity:0.8;stroke:#808080;stroke-opacity:0.8;stroke-width:1.5;" x="240.292078" xlink:href="#m49e0c70aec" y="54.451396"/>
     <use style="fill:#808080;fill-opacity:0.8;stroke:#808080;stroke-opacity:0.8;stroke-width:1.5;" x="240.292078" xlink:href="#m49e0c70aec" y="70.735218"/>
     <use style="fill:#808080;fill-opacity:0.8;stroke:#808080;stroke-opacity:0.8;stroke-width:1.5;" x="247.620242" xlink:href="#m49e0c70aec" y="61.653799"/>
     <use style="fill:#808080;fill-opacity:0.8;stroke:#808080;stroke-opacity:0.8;stroke-width:1.5;" x="236.239093" xlink:href="#m49e0c70aec" y="57.678614"/>
     <use style="fill:#808080;fill-opacity:0.8;stroke:#808080;stroke-opacity:0.8;stroke-width:1.5;" x="236.239093" xlink:href="#m49e0c70aec" y="61.496531"/>
     <use style="fill:#808080;fill-opacity:0.8;stroke:#808080;stroke-opacity:0.8;stroke-width:1.5;" x="269.721051" xlink:href="#m49e0c70aec" y="43.843184"/>
     <use style="fill:#808080;fill-opacity:0.8;stroke:#808080;stroke-opacity:0.8;stroke-width:1.5;" x="269.721051" xlink:href="#m49e0c70aec" y="58.144669"/>
     <use style="fill:#808080;fill-opacity:0.8;stroke:#808080;stroke-opacity:0.8;stroke-width:1.5;" x="212.110826" xlink:href="#m49e0c70aec" y="59.261527"/>
     <use style="fill:#808080;fill-opacity:0.8;stroke:#808080;stroke-opacity:0.8;stroke-width:1.5;" x="236.597148" xlink:href="#m49e0c70aec" y="52.530755"/>
     <use style="fill:#808080;fill-opacity:0.8;stroke:#808080;stroke-opacity:0.8;stroke-width:1.5;" x="249.81671" xlink:href="#m49e0c70aec" y="58.428006"/>
    </g>
   </g>
   <g id="PolyCollection_1">
    <path clip-path="url(#p0aefbfa825)" d="M 192.740615 61.230182 
L 192.740615 75.081474 
L 193.563249 74.837718 
L 194.385883 74.593962 
L 195.208516 74.350206 
L 196.03115 74.106449 
L 196.853783 73.876718 
L 197.676417 73.662178 
L 198.49905 73.44732 
L 199.321684 73.232413 
L 200.144318 73.017506 
L 200.966951 72.802599 
L 201.789585 72.587693 
L 202.612218 72.372786 
L 203.434852 72.157879 
L 204.257486 71.942973 
L 205.080119 71.728046 
L 205.902753 71.512966 
L 206.725386 71.297885 
L 207.54802 71.066154 
L 208.370654 70.830563 
L 209.193287 70.59487 
L 210.015921 70.363885 
L 210.838554 70.141992 
L 211.661188 69.887789 
L 212.483822 69.652096 
L 213.306455 69.416402 
L 214.129089 69.180709 
L 214.951722 68.945015 
L 215.774356 68.720428 
L 216.59699 68.513722 
L 217.419623 68.30687 
L 218.242257 68.100584 
L 219.06489 67.894475 
L 219.887524 67.688822 
L 220.710158 67.482286 
L 221.532791 67.227533 
L 222.355425 66.969542 
L 223.178058 66.741134 
L 224.000692 66.510863 
L 224.823325 66.280592 
L 225.645959 66.051619 
L 226.468593 65.864518 
L 227.291226 65.683366 
L 228.11386 65.416638 
L 228.936493 65.155314 
L 229.759127 64.954814 
L 230.581761 64.766071 
L 231.404394 64.543921 
L 232.227028 64.331563 
L 233.049661 64.102456 
L 233.872295 63.898679 
L 234.694929 63.706728 
L 235.517562 63.486578 
L 236.340196 63.287582 
L 237.162829 63.088467 
L 237.985463 62.898515 
L 238.808097 62.733041 
L 239.63073 62.561224 
L 240.453364 62.362191 
L 241.275997 62.164649 
L 242.098631 62.036318 
L 242.921265 61.849087 
L 243.743898 61.684107 
L 244.566532 61.543114 
L 245.389165 61.395053 
L 246.211799 61.192068 
L 247.034432 61.066903 
L 247.857066 60.910577 
L 248.6797 60.763162 
L 249.502333 60.651795 
L 250.324967 60.540039 
L 251.1476 60.450544 
L 251.970234 60.299458 
L 252.792868 60.199289 
L 253.615501 60.101281 
L 254.438135 60.003502 
L 255.260768 59.963042 
L 256.083402 59.891515 
L 256.906036 59.826011 
L 257.728669 59.772861 
L 258.551303 59.734101 
L 259.373936 59.688636 
L 260.19657 59.615716 
L 261.019204 59.529623 
L 261.841837 59.417929 
L 262.664471 59.372176 
L 263.487104 59.283805 
L 264.309738 59.240662 
L 265.132372 59.191496 
L 265.955005 59.133137 
L 266.777639 59.092379 
L 267.600272 59.051622 
L 268.422906 59.007503 
L 269.24554 58.961653 
L 270.068173 58.930674 
L 270.890807 58.889616 
L 271.71344 58.848558 
L 272.536074 58.796371 
L 273.358707 58.767606 
L 274.181341 58.743253 
L 274.181341 50.721471 
L 274.181341 50.721471 
L 273.358707 50.956373 
L 272.536074 51.160334 
L 271.71344 51.364295 
L 270.890807 51.604537 
L 270.068173 51.863614 
L 269.24554 52.119372 
L 268.422906 52.350453 
L 267.600272 52.581534 
L 266.777639 52.796936 
L 265.955005 53.029845 
L 265.132372 53.223496 
L 264.309738 53.416251 
L 263.487104 53.590046 
L 262.664471 53.796507 
L 261.841837 53.975016 
L 261.019204 54.149296 
L 260.19657 54.326416 
L 259.373936 54.535804 
L 258.551303 54.741044 
L 257.728669 54.96036 
L 256.906036 55.178268 
L 256.083402 55.357407 
L 255.260768 55.564896 
L 254.438135 55.757826 
L 253.615501 55.908053 
L 252.792868 56.102838 
L 251.970234 56.31527 
L 251.1476 56.451397 
L 250.324967 56.587588 
L 249.502333 56.718511 
L 248.6797 56.849435 
L 247.857066 56.976636 
L 247.034432 57.111423 
L 246.211799 57.242865 
L 245.389165 57.374152 
L 244.566532 57.483941 
L 243.743898 57.586547 
L 242.921265 57.711438 
L 242.098631 57.84698 
L 241.275997 57.988123 
L 240.453364 58.090571 
L 239.63073 58.176291 
L 238.808097 58.264454 
L 237.985463 58.336646 
L 237.162829 58.365912 
L 236.340196 58.477928 
L 235.517562 58.590172 
L 234.694929 58.680184 
L 233.872295 58.782518 
L 233.049661 58.890357 
L 232.227028 58.985866 
L 231.404394 59.056586 
L 230.581761 59.143136 
L 229.759127 59.198007 
L 228.936493 59.269218 
L 228.11386 59.339601 
L 227.291226 59.397496 
L 226.468593 59.450846 
L 225.645959 59.540545 
L 224.823325 59.555903 
L 224.000692 59.64327 
L 223.178058 59.723402 
L 222.355425 59.76443 
L 221.532791 59.805458 
L 220.710158 59.846486 
L 219.887524 59.887514 
L 219.06489 59.929281 
L 218.242257 59.971673 
L 217.419623 59.986864 
L 216.59699 59.993405 
L 215.774356 60.002963 
L 214.951722 60.064646 
L 214.129089 60.127708 
L 213.306455 60.19077 
L 212.483822 60.24571 
L 211.661188 60.283432 
L 210.838554 60.317963 
L 210.015921 60.357951 
L 209.193287 60.415899 
L 208.370654 60.476927 
L 207.54802 60.51867 
L 206.725386 60.560412 
L 205.902753 60.603368 
L 205.080119 60.689638 
L 204.257486 60.721122 
L 203.434852 60.733878 
L 202.612218 60.770932 
L 201.789585 60.812909 
L 200.966951 60.854228 
L 200.144318 60.882937 
L 199.321684 60.921233 
L 198.49905 60.980321 
L 197.676417 61.035168 
L 196.853783 61.08258 
L 196.03115 61.105957 
L 195.208516 61.147307 
L 194.385883 61.188657 
L 193.563249 61.21229 
L 192.740615 61.230182 
z
" style="fill:#808080;fill-opacity:0.15;"/>
   </g>
   <g id="matplotlib.axis_3">
    <g id="xtick_3">
     <g id="line2d_37">
      <g>
       <use style="stroke:#000000;stroke-width:0.8;" x="219.100759" xlink:href="#m21d45f8f8a" y="99.484406"/>
      </g>
     </g>
     <g id="text_10">
      <!-- 0.6 -->
      <defs>
       <path d="M 33.015625 40.375 
Q 26.375 40.375 22.484375 35.828125 
Q 18.609375 31.296875 18.609375 23.390625 
Q 18.609375 15.53125 22.484375 10.953125 
Q 26.375 6.390625 33.015625 6.390625 
Q 39.65625 6.390625 43.53125 10.953125 
Q 47.40625 15.53125 47.40625 23.390625 
Q 47.40625 31.296875 43.53125 35.828125 
Q 39.65625 40.375 33.015625 40.375 
z
M 52.59375 71.296875 
L 52.59375 62.3125 
Q 48.875 64.0625 45.09375 64.984375 
Q 41.3125 65.921875 37.59375 65.921875 
Q 27.828125 65.921875 22.671875 59.328125 
Q 17.53125 52.734375 16.796875 39.40625 
Q 19.671875 43.65625 24.015625 45.921875 
Q 28.375 48.1875 33.59375 48.1875 
Q 44.578125 48.1875 50.953125 41.515625 
Q 57.328125 34.859375 57.328125 23.390625 
Q 57.328125 12.15625 50.6875 5.359375 
Q 44.046875 -1.421875 33.015625 -1.421875 
Q 20.359375 -1.421875 13.671875 8.265625 
Q 6.984375 17.96875 6.984375 36.375 
Q 6.984375 53.65625 15.1875 63.9375 
Q 23.390625 74.21875 37.203125 74.21875 
Q 40.921875 74.21875 44.703125 73.484375 
Q 48.484375 72.75 52.59375 71.296875 
z
" id="DejaVuSans-54"/>
      </defs>
      <g transform="translate(214.329821 111.043468)scale(0.06 -0.06)">
       <use xlink:href="#DejaVuSans-48"/>
       <use x="63.623047" xlink:href="#DejaVuSans-46"/>
       <use x="95.410156" xlink:href="#DejaVuSans-54"/>
      </g>
     </g>
    </g>
    <g id="xtick_4">
     <g id="line2d_38">
      <g>
       <use style="stroke:#000000;stroke-width:0.8;" x="251.98783" xlink:href="#m21d45f8f8a" y="99.484406"/>
      </g>
     </g>
     <g id="text_11">
      <!-- 0.8 -->
      <defs>
       <path d="M 31.78125 34.625 
Q 24.75 34.625 20.71875 30.859375 
Q 16.703125 27.09375 16.703125 20.515625 
Q 16.703125 13.921875 20.71875 10.15625 
Q 24.75 6.390625 31.78125 6.390625 
Q 38.8125 6.390625 42.859375 10.171875 
Q 46.921875 13.96875 46.921875 20.515625 
Q 46.921875 27.09375 42.890625 30.859375 
Q 38.875 34.625 31.78125 34.625 
z
M 21.921875 38.8125 
Q 15.578125 40.375 12.03125 44.71875 
Q 8.5 49.078125 8.5 55.328125 
Q 8.5 64.0625 14.71875 69.140625 
Q 20.953125 74.21875 31.78125 74.21875 
Q 42.671875 74.21875 48.875 69.140625 
Q 55.078125 64.0625 55.078125 55.328125 
Q 55.078125 49.078125 51.53125 44.71875 
Q 48 40.375 41.703125 38.8125 
Q 48.828125 37.15625 52.796875 32.3125 
Q 56.78125 27.484375 56.78125 20.515625 
Q 56.78125 9.90625 50.3125 4.234375 
Q 43.84375 -1.421875 31.78125 -1.421875 
Q 19.734375 -1.421875 13.25 4.234375 
Q 6.78125 9.90625 6.78125 20.515625 
Q 6.78125 27.484375 10.78125 32.3125 
Q 14.796875 37.15625 21.921875 38.8125 
z
M 18.3125 54.390625 
Q 18.3125 48.734375 21.84375 45.5625 
Q 25.390625 42.390625 31.78125 42.390625 
Q 38.140625 42.390625 41.71875 45.5625 
Q 45.3125 48.734375 45.3125 54.390625 
Q 45.3125 60.0625 41.71875 63.234375 
Q 38.140625 66.40625 31.78125 66.40625 
Q 25.390625 66.40625 21.84375 63.234375 
Q 18.3125 60.0625 18.3125 54.390625 
z
" id="DejaVuSans-56"/>
      </defs>
      <g transform="translate(247.216893 111.043468)scale(0.06 -0.06)">
       <use xlink:href="#DejaVuSans-48"/>
       <use x="63.623047" xlink:href="#DejaVuSans-46"/>
       <use x="95.410156" xlink:href="#DejaVuSans-56"/>
      </g>
     </g>
    </g>
    <g id="text_12">
     <!-- Behavior performance (DI) -->
     <defs>
      <path d="M 18.109375 8.203125 
L 18.109375 -20.796875 
L 9.078125 -20.796875 
L 9.078125 54.6875 
L 18.109375 54.6875 
L 18.109375 46.390625 
Q 20.953125 51.265625 25.265625 53.625 
Q 29.59375 56 35.59375 56 
Q 45.5625 56 51.78125 48.09375 
Q 58.015625 40.1875 58.015625 27.296875 
Q 58.015625 14.40625 51.78125 6.484375 
Q 45.5625 -1.421875 35.59375 -1.421875 
Q 29.59375 -1.421875 25.265625 0.953125 
Q 20.953125 3.328125 18.109375 8.203125 
z
M 48.6875 27.296875 
Q 48.6875 37.203125 44.609375 42.84375 
Q 40.53125 48.484375 33.40625 48.484375 
Q 26.265625 48.484375 22.1875 42.84375 
Q 18.109375 37.203125 18.109375 27.296875 
Q 18.109375 17.390625 22.1875 11.75 
Q 26.265625 6.109375 33.40625 6.109375 
Q 40.53125 6.109375 44.609375 11.75 
Q 48.6875 17.390625 48.6875 27.296875 
z
" id="DejaVuSans-112"/>
      <path d="M 37.109375 75.984375 
L 37.109375 68.5 
L 28.515625 68.5 
Q 23.6875 68.5 21.796875 66.546875 
Q 19.921875 64.59375 19.921875 59.515625 
L 19.921875 54.6875 
L 34.71875 54.6875 
L 34.71875 47.703125 
L 19.921875 47.703125 
L 19.921875 0 
L 10.890625 0 
L 10.890625 47.703125 
L 2.296875 47.703125 
L 2.296875 54.6875 
L 10.890625 54.6875 
L 10.890625 58.5 
Q 10.890625 67.625 15.140625 71.796875 
Q 19.390625 75.984375 28.609375 75.984375 
z
" id="DejaVuSans-102"/>
      <path d="M 52 44.1875 
Q 55.375 50.25 60.0625 53.125 
Q 64.75 56 71.09375 56 
Q 79.640625 56 84.28125 50.015625 
Q 88.921875 44.046875 88.921875 33.015625 
L 88.921875 0 
L 79.890625 0 
L 79.890625 32.71875 
Q 79.890625 40.578125 77.09375 44.375 
Q 74.3125 48.1875 68.609375 48.1875 
Q 61.625 48.1875 57.5625 43.546875 
Q 53.515625 38.921875 53.515625 30.90625 
L 53.515625 0 
L 44.484375 0 
L 44.484375 32.71875 
Q 44.484375 40.625 41.703125 44.40625 
Q 38.921875 48.1875 33.109375 48.1875 
Q 26.21875 48.1875 22.15625 43.53125 
Q 18.109375 38.875 18.109375 30.90625 
L 18.109375 0 
L 9.078125 0 
L 9.078125 54.6875 
L 18.109375 54.6875 
L 18.109375 46.1875 
Q 21.1875 51.21875 25.484375 53.609375 
Q 29.78125 56 35.6875 56 
Q 41.65625 56 45.828125 52.96875 
Q 50 49.953125 52 44.1875 
z
" id="DejaVuSans-109"/>
      <path d="M 19.671875 64.796875 
L 19.671875 8.109375 
L 31.59375 8.109375 
Q 46.6875 8.109375 53.6875 14.9375 
Q 60.6875 21.78125 60.6875 36.53125 
Q 60.6875 51.171875 53.6875 57.984375 
Q 46.6875 64.796875 31.59375 64.796875 
z
M 9.8125 72.90625 
L 30.078125 72.90625 
Q 51.265625 72.90625 61.171875 64.09375 
Q 71.09375 55.28125 71.09375 36.53125 
Q 71.09375 17.671875 61.125 8.828125 
Q 51.171875 0 30.078125 0 
L 9.8125 0 
z
" id="DejaVuSans-68"/>
      <path d="M 9.8125 72.90625 
L 19.671875 72.90625 
L 19.671875 0 
L 9.8125 0 
z
" id="DejaVuSans-73"/>
     </defs>
     <g transform="translate(193.421688 120.850343)scale(0.06 -0.06)">
      <use xlink:href="#DejaVuSans-66"/>
      <use x="68.603516" xlink:href="#DejaVuSans-101"/>
      <use x="130.126953" xlink:href="#DejaVuSans-104"/>
      <use x="193.505859" xlink:href="#DejaVuSans-97"/>
      <use x="254.785156" xlink:href="#DejaVuSans-118"/>
      <use x="313.964844" xlink:href="#DejaVuSans-105"/>
      <use x="341.748047" xlink:href="#DejaVuSans-111"/>
      <use x="402.929688" xlink:href="#DejaVuSans-114"/>
      <use x="444.042969" xlink:href="#DejaVuSans-32"/>
      <use x="475.830078" xlink:href="#DejaVuSans-112"/>
      <use x="539.306641" xlink:href="#DejaVuSans-101"/>
      <use x="600.830078" xlink:href="#DejaVuSans-114"/>
      <use x="641.943359" xlink:href="#DejaVuSans-102"/>
      <use x="677.148438" xlink:href="#DejaVuSans-111"/>
      <use x="738.330078" xlink:href="#DejaVuSans-114"/>
      <use x="779.427734" xlink:href="#DejaVuSans-109"/>
      <use x="876.839844" xlink:href="#DejaVuSans-97"/>
      <use x="938.119141" xlink:href="#DejaVuSans-110"/>
      <use x="1001.498047" xlink:href="#DejaVuSans-99"/>
      <use x="1056.478516" xlink:href="#DejaVuSans-101"/>
      <use x="1118.001953" xlink:href="#DejaVuSans-32"/>
      <use x="1149.789062" xlink:href="#DejaVuSans-40"/>
      <use x="1188.802734" xlink:href="#DejaVuSans-68"/>
      <use x="1265.804688" xlink:href="#DejaVuSans-73"/>
      <use x="1295.296875" xlink:href="#DejaVuSans-41"/>
     </g>
    </g>
   </g>
   <g id="matplotlib.axis_4">
    <g id="ytick_6">
     <g id="line2d_39">
      <g>
       <use style="stroke:#000000;stroke-width:0.8;" x="187.904" xlink:href="#maa33458be8" y="91.522412"/>
      </g>
     </g>
     <g id="text_13">
      <!-- 0.2 -->
      <defs>
       <path d="M 10.59375 35.5 
L 73.1875 35.5 
L 73.1875 27.203125 
L 10.59375 27.203125 
z
" id="DejaVuSans-8722"/>
      </defs>
      <g transform="translate(166.334313 93.801944)scale(0.06 -0.06)">
       <use xlink:href="#DejaVuSans-8722"/>
       <use x="83.789062" xlink:href="#DejaVuSans-48"/>
       <use x="147.412109" xlink:href="#DejaVuSans-46"/>
       <use x="179.199219" xlink:href="#DejaVuSans-50"/>
      </g>
     </g>
    </g>
    <g id="ytick_7">
     <g id="line2d_40">
      <g>
       <use style="stroke:#000000;stroke-width:0.8;" x="187.904" xlink:href="#maa33458be8" y="77.466858"/>
      </g>
     </g>
     <g id="text_14">
      <!-- 0.1 -->
      <g transform="translate(166.334313 79.746389)scale(0.06 -0.06)">
       <use xlink:href="#DejaVuSans-8722"/>
       <use x="83.789062" xlink:href="#DejaVuSans-48"/>
       <use x="147.412109" xlink:href="#DejaVuSans-46"/>
       <use x="179.199219" xlink:href="#DejaVuSans-49"/>
      </g>
     </g>
    </g>
    <g id="ytick_8">
     <g id="line2d_41">
      <g>
       <use style="stroke:#000000;stroke-width:0.8;" x="187.904" xlink:href="#maa33458be8" y="63.411303"/>
      </g>
     </g>
     <g id="text_15">
      <!-- 0.0 -->
      <g transform="translate(171.362125 65.690835)scale(0.06 -0.06)">
       <use xlink:href="#DejaVuSans-48"/>
       <use x="63.623047" xlink:href="#DejaVuSans-46"/>
       <use x="95.410156" xlink:href="#DejaVuSans-48"/>
      </g>
     </g>
    </g>
    <g id="ytick_9">
     <g id="line2d_42">
      <g>
       <use style="stroke:#000000;stroke-width:0.8;" x="187.904" xlink:href="#maa33458be8" y="49.355749"/>
      </g>
     </g>
     <g id="text_16">
      <!-- 0.1 -->
      <g transform="translate(171.362125 51.63528)scale(0.06 -0.06)">
       <use xlink:href="#DejaVuSans-48"/>
       <use x="63.623047" xlink:href="#DejaVuSans-46"/>
       <use x="95.410156" xlink:href="#DejaVuSans-49"/>
      </g>
     </g>
    </g>
    <g id="ytick_10">
     <g id="line2d_43">
      <g>
       <use style="stroke:#000000;stroke-width:0.8;" x="187.904" xlink:href="#maa33458be8" y="35.300194"/>
      </g>
     </g>
     <g id="text_17">
      <!-- 0.2 -->
      <g transform="translate(171.362125 37.579726)scale(0.06 -0.06)">
       <use xlink:href="#DejaVuSans-48"/>
       <use x="63.623047" xlink:href="#DejaVuSans-46"/>
       <use x="95.410156" xlink:href="#DejaVuSans-50"/>
      </g>
     </g>
    </g>
    <g id="ytick_11">
     <g id="line2d_44">
      <g>
       <use style="stroke:#000000;stroke-width:0.8;" x="187.904" xlink:href="#maa33458be8" y="21.24464"/>
      </g>
     </g>
     <g id="text_18">
      <!-- 0.3 -->
      <defs>
       <path d="M 40.578125 39.3125 
Q 47.65625 37.796875 51.625 33 
Q 55.609375 28.21875 55.609375 21.1875 
Q 55.609375 10.40625 48.1875 4.484375 
Q 40.765625 -1.421875 27.09375 -1.421875 
Q 22.515625 -1.421875 17.65625 -0.515625 
Q 12.796875 0.390625 7.625 2.203125 
L 7.625 11.71875 
Q 11.71875 9.328125 16.59375 8.109375 
Q 21.484375 6.890625 26.8125 6.890625 
Q 36.078125 6.890625 40.9375 10.546875 
Q 45.796875 14.203125 45.796875 21.1875 
Q 45.796875 27.640625 41.28125 31.265625 
Q 36.765625 34.90625 28.71875 34.90625 
L 20.21875 34.90625 
L 20.21875 43.015625 
L 29.109375 43.015625 
Q 36.375 43.015625 40.234375 45.921875 
Q 44.09375 48.828125 44.09375 54.296875 
Q 44.09375 59.90625 40.109375 62.90625 
Q 36.140625 65.921875 28.71875 65.921875 
Q 24.65625 65.921875 20.015625 65.03125 
Q 15.375 64.15625 9.8125 62.3125 
L 9.8125 71.09375 
Q 15.4375 72.65625 20.34375 73.4375 
Q 25.25 74.21875 29.59375 74.21875 
Q 40.828125 74.21875 47.359375 69.109375 
Q 53.90625 64.015625 53.90625 55.328125 
Q 53.90625 49.265625 50.4375 45.09375 
Q 46.96875 40.921875 40.578125 39.3125 
z
" id="DejaVuSans-51"/>
      </defs>
      <g transform="translate(171.362125 23.524171)scale(0.06 -0.06)">
       <use xlink:href="#DejaVuSans-48"/>
       <use x="63.623047" xlink:href="#DejaVuSans-46"/>
       <use x="95.410156" xlink:href="#DejaVuSans-51"/>
      </g>
     </g>
    </g>
    <g id="text_19">
     <!-- $\Delta r_{sc}$ -->
     <defs>
      <path d="M 34.1875 63.1875 
L 14.15625 8.203125 
L 54.25 8.203125 
z
M 0.78125 0 
L 28.609375 72.90625 
L 39.796875 72.90625 
L 67.578125 0 
z
" id="DejaVuSans-916"/>
     </defs>
     <g transform="translate(154.367813 65.222203)rotate(-90)scale(0.06 -0.06)">
      <use transform="translate(0 0.09375)" xlink:href="#DejaVuSans-916"/>
      <use transform="translate(68.408203 0.09375)" xlink:href="#DejaVuSans-Oblique-114"/>
      <use transform="translate(109.521484 -16.3125)scale(0.7)" xlink:href="#DejaVuSans-Oblique-115"/>
      <use transform="translate(145.991211 -16.3125)scale(0.7)" xlink:href="#DejaVuSans-Oblique-99"/>
     </g>
     <!-- (Active - Passive) -->
     <defs>
      <path d="M 4.890625 31.390625 
L 31.203125 31.390625 
L 31.203125 23.390625 
L 4.890625 23.390625 
z
" id="DejaVuSans-45"/>
     </defs>
     <g transform="translate(161.0865 85.470797)rotate(-90)scale(0.06 -0.06)">
      <use xlink:href="#DejaVuSans-40"/>
      <use x="39.013672" xlink:href="#DejaVuSans-65"/>
      <use x="107.40625" xlink:href="#DejaVuSans-99"/>
      <use x="162.386719" xlink:href="#DejaVuSans-116"/>
      <use x="201.595703" xlink:href="#DejaVuSans-105"/>
      <use x="229.378906" xlink:href="#DejaVuSans-118"/>
      <use x="288.558594" xlink:href="#DejaVuSans-101"/>
      <use x="350.082031" xlink:href="#DejaVuSans-32"/>
      <use x="381.869141" xlink:href="#DejaVuSans-45"/>
      <use x="417.953125" xlink:href="#DejaVuSans-32"/>
      <use x="449.740234" xlink:href="#DejaVuSans-80"/>
      <use x="509.980469" xlink:href="#DejaVuSans-97"/>
      <use x="571.259766" xlink:href="#DejaVuSans-115"/>
      <use x="623.359375" xlink:href="#DejaVuSans-115"/>
      <use x="675.458984" xlink:href="#DejaVuSans-105"/>
      <use x="703.242188" xlink:href="#DejaVuSans-118"/>
      <use x="762.421875" xlink:href="#DejaVuSans-101"/>
      <use x="823.945312" xlink:href="#DejaVuSans-41"/>
     </g>
    </g>
   </g>
   <g id="line2d_45">
    <path clip-path="url(#p0aefbfa825)" d="M 192.740615 68.020781 
L 193.563249 67.886492 
L 194.385883 67.752203 
L 195.208516 67.617914 
L 196.03115 67.483625 
L 196.853783 67.349336 
L 197.676417 67.215047 
L 198.49905 67.080759 
L 199.321684 66.94647 
L 200.144318 66.812181 
L 200.966951 66.677892 
L 201.789585 66.543603 
L 202.612218 66.409314 
L 203.434852 66.275025 
L 204.257486 66.140736 
L 205.080119 66.006448 
L 205.902753 65.872159 
L 206.725386 65.73787 
L 207.54802 65.603581 
L 208.370654 65.469292 
L 209.193287 65.335003 
L 210.015921 65.200714 
L 210.838554 65.066425 
L 211.661188 64.932137 
L 212.483822 64.797848 
L 213.306455 64.663559 
L 214.129089 64.52927 
L 214.951722 64.394981 
L 215.774356 64.260692 
L 216.59699 64.126403 
L 217.419623 63.992114 
L 218.242257 63.857826 
L 219.06489 63.723537 
L 219.887524 63.589248 
L 220.710158 63.454959 
L 221.532791 63.32067 
L 222.355425 63.186381 
L 223.178058 63.052092 
L 224.000692 62.917803 
L 224.823325 62.783515 
L 225.645959 62.649226 
L 226.468593 62.514937 
L 227.291226 62.380648 
L 228.11386 62.246359 
L 228.936493 62.11207 
L 229.759127 61.977781 
L 230.581761 61.843493 
L 231.404394 61.709204 
L 232.227028 61.574915 
L 233.049661 61.440626 
L 233.872295 61.306337 
L 234.694929 61.172048 
L 235.517562 61.037759 
L 236.340196 60.90347 
L 237.162829 60.769182 
L 237.985463 60.634893 
L 238.808097 60.500604 
L 239.63073 60.366315 
L 240.453364 60.232026 
L 241.275997 60.097737 
L 242.098631 59.963448 
L 242.921265 59.829159 
L 243.743898 59.694871 
L 244.566532 59.560582 
L 245.389165 59.426293 
L 246.211799 59.292004 
L 247.034432 59.157715 
L 247.857066 59.023426 
L 248.6797 58.889137 
L 249.502333 58.754848 
L 250.324967 58.62056 
L 251.1476 58.486271 
L 251.970234 58.351982 
L 252.792868 58.217693 
L 253.615501 58.083404 
L 254.438135 57.949115 
L 255.260768 57.814826 
L 256.083402 57.680538 
L 256.906036 57.546249 
L 257.728669 57.41196 
L 258.551303 57.277671 
L 259.373936 57.143382 
L 260.19657 57.009093 
L 261.019204 56.874804 
L 261.841837 56.740515 
L 262.664471 56.606227 
L 263.487104 56.471938 
L 264.309738 56.337649 
L 265.132372 56.20336 
L 265.955005 56.069071 
L 266.777639 55.934782 
L 267.600272 55.800493 
L 268.422906 55.666204 
L 269.24554 55.531916 
L 270.068173 55.397627 
L 270.890807 55.263338 
L 271.71344 55.129049 
L 272.536074 54.99476 
L 273.358707 54.860471 
L 274.181341 54.726182 
" style="fill:none;stroke:#808080;stroke-linecap:square;stroke-width:2.25;"/>
   </g>
   <g id="line2d_46">
    <path clip-path="url(#p0aefbfa825)" d="M 187.904 63.411303 
L 279 63.411303 
" style="fill:none;stroke:#000000;stroke-dasharray:5.55,2.4;stroke-dashoffset:0;stroke-width:1.5;"/>
   </g>
   <g id="line2d_47">
    <path clip-path="url(#p0aefbfa825)" d="M 202.657223 99.484406 
L 202.657223 19.68 
" style="fill:none;stroke:#000000;stroke-dasharray:5.55,2.4;stroke-dashoffset:0;stroke-width:1.5;"/>
   </g>
   <g id="patch_6">
    <path d="M 187.904 99.484406 
L 187.904 19.68 
" style="fill:none;stroke:#000000;stroke-linecap:square;stroke-linejoin:miter;stroke-width:0.8;"/>
   </g>
   <g id="patch_7">
    <path d="M 187.904 99.484406 
L 279 99.484406 
" style="fill:none;stroke:#000000;stroke-linecap:square;stroke-linejoin:miter;stroke-width:0.8;"/>
   </g>
   <g id="text_20">
    <!-- $r$: 0.326, $p$: 0.002 -->
    <defs>
     <path d="M 11.71875 12.40625 
L 22.015625 12.40625 
L 22.015625 0 
L 11.71875 0 
z
M 11.71875 51.703125 
L 22.015625 51.703125 
L 22.015625 39.3125 
L 11.71875 39.3125 
z
" id="DejaVuSans-58"/>
     <path d="M 11.71875 12.40625 
L 22.015625 12.40625 
L 22.015625 4 
L 14.015625 -11.625 
L 7.71875 -11.625 
L 11.71875 4 
z
" id="DejaVuSans-44"/>
     <path d="M 49.609375 33.6875 
Q 49.609375 40.875 46.484375 44.671875 
Q 43.359375 48.484375 37.5 48.484375 
Q 33.5 48.484375 29.859375 46.4375 
Q 26.21875 44.390625 23.390625 40.484375 
Q 20.609375 36.625 18.9375 31.15625 
Q 17.28125 25.6875 17.28125 20.3125 
Q 17.28125 13.484375 20.40625 9.796875 
Q 23.53125 6.109375 29.296875 6.109375 
Q 33.546875 6.109375 37.1875 8.109375 
Q 40.828125 10.109375 43.40625 13.921875 
Q 46.1875 17.921875 47.890625 23.34375 
Q 49.609375 28.765625 49.609375 33.6875 
z
M 21.78125 46.390625 
Q 25.390625 51.125 30.296875 53.5625 
Q 35.203125 56 41.21875 56 
Q 49.609375 56 54.25 50.5 
Q 58.890625 45.015625 58.890625 35.109375 
Q 58.890625 27 56 19.65625 
Q 53.125 12.3125 47.703125 6.5 
Q 44.09375 2.640625 39.546875 0.609375 
Q 35.015625 -1.421875 29.984375 -1.421875 
Q 24.171875 -1.421875 20.21875 1 
Q 16.265625 3.421875 14.3125 8.203125 
L 8.6875 -20.796875 
L -0.296875 -20.796875 
L 14.40625 54.6875 
L 23.390625 54.6875 
z
" id="DejaVuSans-Oblique-112"/>
    </defs>
    <g transform="translate(202.06 13.68)scale(0.072 -0.072)">
     <use transform="translate(0 0.78125)" xlink:href="#DejaVuSans-Oblique-114"/>
     <use transform="translate(41.113281 0.78125)" xlink:href="#DejaVuSans-58"/>
     <use transform="translate(74.804688 0.78125)" xlink:href="#DejaVuSans-32"/>
     <use transform="translate(106.591797 0.78125)" xlink:href="#DejaVuSans-48"/>
     <use transform="translate(170.214844 0.78125)" xlink:href="#DejaVuSans-46"/>
     <use transform="translate(202.001953 0.78125)" xlink:href="#DejaVuSans-51"/>
     <use transform="translate(265.625 0.78125)" xlink:href="#DejaVuSans-50"/>
     <use transform="translate(329.248047 0.78125)" xlink:href="#DejaVuSans-54"/>
     <use transform="translate(392.871094 0.78125)" xlink:href="#DejaVuSans-44"/>
     <use transform="translate(424.658203 0.78125)" xlink:href="#DejaVuSans-32"/>
     <use transform="translate(456.445312 0.78125)" xlink:href="#DejaVuSans-Oblique-112"/>
     <use transform="translate(519.921875 0.78125)" xlink:href="#DejaVuSans-58"/>
     <use transform="translate(553.613281 0.78125)" xlink:href="#DejaVuSans-32"/>
     <use transform="translate(585.400391 0.78125)" xlink:href="#DejaVuSans-48"/>
     <use transform="translate(649.023438 0.78125)" xlink:href="#DejaVuSans-46"/>
     <use transform="translate(680.810547 0.78125)" xlink:href="#DejaVuSans-48"/>
     <use transform="translate(744.433594 0.78125)" xlink:href="#DejaVuSans-48"/>
     <use transform="translate(808.056641 0.78125)" xlink:href="#DejaVuSans-50"/>
    </g>
   </g>
   <g id="legend_1">
    <g id="line2d_48">
     <path d="M 193.304 27.539062 
L 205.304 27.539062 
" style="fill:none;stroke:#1f77b4;stroke-linecap:square;"/>
    </g>
    <g id="line2d_49"/>
    <g id="text_21">
     <!-- 302 -->
     <g transform="translate(210.104 29.639062)scale(0.06 -0.06)">
      <use xlink:href="#DejaVuSans-51"/>
      <use x="63.623047" xlink:href="#DejaVuSans-48"/>
      <use x="127.246094" xlink:href="#DejaVuSans-50"/>
     </g>
    </g>
    <g id="line2d_50">
     <path d="M 193.304 36.345937 
L 205.304 36.345937 
" style="fill:none;stroke:#ff7f0e;stroke-linecap:square;"/>
    </g>
    <g id="line2d_51"/>
    <g id="text_22">
     <!-- 307 -->
     <g transform="translate(210.104 38.445937)scale(0.06 -0.06)">
      <use xlink:href="#DejaVuSans-51"/>
      <use x="63.623047" xlink:href="#DejaVuSans-48"/>
      <use x="127.246094" xlink:href="#DejaVuSans-55"/>
     </g>
    </g>
    <g id="line2d_52">
     <path d="M 193.304 45.152812 
L 205.304 45.152812 
" style="fill:none;stroke:#2ca02c;stroke-linecap:square;"/>
    </g>
    <g id="line2d_53"/>
    <g id="text_23">
     <!-- 324 -->
     <defs>
      <path d="M 37.796875 64.3125 
L 12.890625 25.390625 
L 37.796875 25.390625 
z
M 35.203125 72.90625 
L 47.609375 72.90625 
L 47.609375 25.390625 
L 58.015625 25.390625 
L 58.015625 17.1875 
L 47.609375 17.1875 
L 47.609375 0 
L 37.796875 0 
L 37.796875 17.1875 
L 4.890625 17.1875 
L 4.890625 26.703125 
z
" id="DejaVuSans-52"/>
     </defs>
     <g transform="translate(210.104 47.252812)scale(0.06 -0.06)">
      <use xlink:href="#DejaVuSans-51"/>
      <use x="63.623047" xlink:href="#DejaVuSans-50"/>
      <use x="127.246094" xlink:href="#DejaVuSans-52"/>
     </g>
    </g>
    <g id="line2d_54">
     <path d="M 193.304 53.959687 
L 205.304 53.959687 
" style="fill:none;stroke:#d62728;stroke-linecap:square;"/>
    </g>
    <g id="line2d_55"/>
    <g id="text_24">
     <!-- 325 -->
     <g transform="translate(210.104 56.059687)scale(0.06 -0.06)">
      <use xlink:href="#DejaVuSans-51"/>
      <use x="63.623047" xlink:href="#DejaVuSans-50"/>
      <use x="127.246094" xlink:href="#DejaVuSans-53"/>
     </g>
    </g>
   </g>
  </g>
 </g>
 <defs>
  <clipPath id="p8591cdf7b2">
   <rect height="79.804406" width="91.096" x="44.75" y="19.68"/>
  </clipPath>
  <clipPath id="p0aefbfa825">
   <rect height="79.804406" width="91.096" x="187.904" y="19.68"/>
  </clipPath>
 </defs>
</svg>
